<svg xmlns="http://www.w3.org/2000/svg" viewBox="0 0 2048 2048" fill="none" stroke="none">
<path d="M 1501,1194 L 1501,1196 L 1502,1197 L 1502,1199 L 1504,1201 L 1504,1203 L 1506,1205 L 1506,1206 L 1507,1207 L 1507,1208 L 1508,1209 L 1508,1210 L 1510,1212 L 1510,1214 L 1512,1216 L 1512,1217 L 1513,1218 L 1513,1219 L 1515,1221 L 1515,1222 L 1517,1224 L 1517,1225 L 1518,1226 L 1518,1227 L 1519,1228 L 1519,1229 L 1521,1231 L 1521,1233 L 1523,1235 L 1523,1236 L 1524,1237 L 1524,1238 L 1525,1239 L 1525,1240 L 1527,1242 L 1527,1243 L 1528,1244 L 1528,1245 L 1530,1247 L 1530,1248 L 1532,1250 L 1532,1251 L 1533,1252 L 1533,1253 L 1534,1254 L 1534,1255 L 1536,1257 L 1536,1258 L 1537,1259 L 1537,1260 L 1538,1261 L 1538,1262 L 1540,1264 L 1540,1265 L 1542,1267 L 1542,1268 L 1543,1269 L 1543,1270 L 1545,1272 L 1545,1273 L 1546,1274 L 1546,1275 L 1547,1276 L 1547,1277 L 1549,1279 L 1549,1280 L 1551,1282 L 1551,1283 L 1553,1285 L 1553,1287 L 1555,1289 L 1555,1290 L 1558,1293 L 1558,1294 L 1560,1296 L 1560,1297 L 1562,1299 L 1562,1300 L 1563,1301 L 1563,1302 L 1564,1303 L 1564,1305 L 1566,1307 L 1566,1309 L 1567,1310 L 1567,1311 L 1568,1312 L 1568,1315 L 1567,1316 L 1565,1314 L 1565,1313 L 1563,1311 L 1563,1310 L 1561,1308 L 1561,1307 L 1559,1305 L 1559,1304 L 1556,1301 L 1556,1299 L 1555,1299 L 1554,1298 L 1554,1297 L 1553,1296 L 1553,1295 L 1552,1294 L 1552,1293 L 1551,1293 L 1550,1292 L 1550,1291 L 1549,1290 L 1549,1289 L 1547,1287 L 1547,1286 L 1544,1283 L 1544,1282 L 1543,1281 L 1543,1280 L 1542,1280 L 1541,1279 L 1541,1278 L 1539,1276 L 1539,1275 L 1537,1273 L 1537,1272 L 1535,1270 L 1535,1269 L 1533,1267 L 1533,1266 L 1531,1264 L 1531,1263 L 1528,1260 L 1528,1259 L 1526,1257 L 1526,1256 L 1523,1253 L 1523,1252 L 1522,1251 L 1522,1250 L 1521,1250 L 1520,1249 L 1520,1248 L 1518,1246 L 1518,1245 L 1516,1243 L 1516,1242 L 1513,1239 L 1513,1238 L 1511,1236 L 1511,1235 L 1510,1235 L 1509,1234 L 1509,1233 L 1507,1231 L 1507,1230 L 1505,1228 L 1505,1227 L 1501,1223 L 1501,1222 L 1496,1217 L 1496,1216 L 1495,1215 L 1494,1215 L 1492,1213 L 1491,1213 L 1487,1209 L 1485,1209 L 1483,1211 L 1481,1211 L 1479,1213 L 1477,1213 L 1475,1215 L 1473,1215 L 1472,1216 L 1471,1216 L 1470,1217 L 1469,1217 L 1468,1218 L 1467,1218 L 1466,1219 L 1465,1219 L 1464,1220 L 1463,1220 L 1462,1221 L 1461,1221 L 1460,1222 L 1459,1222 L 1458,1223 L 1457,1223 L 1456,1224 L 1454,1224 L 1452,1226 L 1450,1226 L 1448,1228 L 1446,1228 L 1443,1231 L 1441,1231 L 1440,1232 L 1439,1232 L 1438,1233 L 1437,1233 L 1436,1234 L 1435,1234 L 1434,1235 L 1433,1235 L 1432,1236 L 1431,1236 L 1430,1237 L 1429,1237 L 1428,1238 L 1427,1238 L 1426,1239 L 1425,1239 L 1424,1240 L 1423,1240 L 1422,1241 L 1421,1241 L 1420,1242 L 1419,1242 L 1418,1243 L 1417,1243 L 1415,1245 L 1414,1245 L 1413,1246 L 1411,1246 L 1409,1248 L 1407,1248 L 1405,1250 L 1404,1250 L 1402,1252 L 1400,1252 L 1399,1253 L 1398,1253 L 1397,1254 L 1396,1254 L 1394,1256 L 1392,1256 L 1390,1258 L 1389,1258 L 1388,1259 L 1387,1259 L 1385,1261 L 1383,1261 L 1381,1263 L 1379,1263 L 1377,1265 L 1376,1265 L 1374,1267 L 1372,1267 L 1371,1268 L 1370,1268 L 1369,1269 L 1368,1269 L 1367,1270 L 1366,1270 L 1365,1271 L 1364,1271 L 1363,1272 L 1362,1272 L 1361,1273 L 1360,1273 L 1359,1274 L 1356,1274 L 1354,1276 L 1351,1276 L 1349,1278 L 1347,1278 L 1346,1279 L 1345,1279 L 1344,1280 L 1343,1280 L 1342,1281 L 1341,1281 L 1340,1282 L 1338,1282 L 1336,1284 L 1334,1284 L 1332,1286 L 1331,1286 L 1330,1287 L 1329,1287 L 1328,1288 L 1327,1288 L 1326,1289 L 1325,1289 L 1324,1290 L 1323,1290 L 1322,1291 L 1321,1291 L 1320,1292 L 1319,1292 L 1318,1293 L 1317,1293 L 1316,1294 L 1315,1294 L 1314,1295 L 1312,1295 L 1310,1297 L 1308,1297 L 1306,1299 L 1304,1299 L 1303,1300 L 1302,1300 L 1300,1302 L 1298,1302 L 1296,1304 L 1293,1304 L 1292,1305 L 1290,1305 L 1289,1306 L 1285,1306 L 1284,1307 L 1282,1307 L 1282,1308 L 1281,1309 L 1281,1312 L 1280,1313 L 1280,1321 L 1281,1322 L 1281,1323 L 1282,1324 L 1282,1328 L 1280,1330 L 1280,1332 L 1278,1334 L 1278,1337 L 1276,1339 L 1276,1341 L 1275,1342 L 1275,1343 L 1274,1344 L 1274,1346 L 1271,1349 L 1271,1350 L 1270,1351 L 1269,1351 L 1269,1352 L 1268,1353 L 1267,1353 L 1267,1354 L 1266,1355 L 1265,1355 L 1264,1356 L 1263,1356 L 1263,1357 L 1261,1359 L 1261,1366 L 1260,1367 L 1260,1368 L 1259,1369 L 1259,1370 L 1258,1371 L 1258,1372 L 1256,1374 L 1256,1375 L 1254,1377 L 1254,1378 L 1253,1379 L 1253,1380 L 1252,1381 L 1252,1382 L 1249,1385 L 1249,1386 L 1248,1387 L 1248,1388 L 1246,1390 L 1246,1391 L 1243,1394 L 1243,1395 L 1240,1398 L 1240,1399 L 1239,1400 L 1239,1401 L 1237,1403 L 1237,1404 L 1236,1405 L 1235,1405 L 1235,1406 L 1234,1407 L 1234,1408 L 1231,1411 L 1231,1412 L 1229,1414 L 1229,1415 L 1226,1418 L 1226,1419 L 1224,1421 L 1224,1422 L 1222,1424 L 1222,1425 L 1221,1426 L 1221,1427 L 1220,1428 L 1220,1430 L 1219,1431 L 1218,1431 L 1218,1433 L 1209,1442 L 1209,1443 L 1207,1445 L 1207,1446 L 1205,1448 L 1205,1449 L 1204,1450 L 1204,1451 L 1203,1452 L 1203,1453 L 1202,1454 L 1202,1455 L 1200,1457 L 1200,1458 L 1199,1459 L 1199,1460 L 1198,1461 L 1198,1462 L 1197,1463 L 1196,1463 L 1196,1464 L 1194,1466 L 1194,1467 L 1192,1469 L 1192,1470 L 1190,1472 L 1190,1473 L 1189,1474 L 1189,1475 L 1186,1478 L 1186,1479 L 1185,1480 L 1185,1481 L 1182,1484 L 1182,1485 L 1181,1486 L 1181,1487 L 1179,1489 L 1179,1490 L 1177,1492 L 1177,1493 L 1175,1495 L 1175,1496 L 1173,1498 L 1173,1499 L 1170,1502 L 1170,1503 L 1169,1504 L 1169,1505 L 1168,1506 L 1168,1507 L 1167,1508 L 1166,1508 L 1166,1509 L 1164,1511 L 1164,1512 L 1163,1513 L 1163,1514 L 1160,1517 L 1160,1518 L 1159,1519 L 1158,1519 L 1157,1520 L 1157,1521 L 1151,1527 L 1150,1527 L 1149,1528 L 1149,1529 L 1148,1530 L 1147,1530 L 1146,1531 L 1145,1531 L 1144,1532 L 1143,1532 L 1141,1534 L 1139,1534 L 1138,1535 L 1132,1535 L 1131,1536 L 1128,1536 L 1126,1538 L 1126,1539 L 1124,1541 L 1123,1541 L 1122,1542 L 1121,1542 L 1120,1543 L 1119,1543 L 1117,1545 L 1115,1545 L 1113,1547 L 1111,1547 L 1109,1549 L 1108,1549 L 1107,1550 L 1106,1550 L 1105,1551 L 1104,1551 L 1103,1552 L 1102,1552 L 1101,1553 L 1099,1553 L 1097,1555 L 1095,1555 L 1092,1558 L 1089,1558 L 1087,1560 L 1085,1560 L 1083,1562 L 1081,1562 L 1079,1564 L 1077,1564 L 1075,1566 L 1074,1566 L 1073,1567 L 1072,1567 L 1071,1568 L 1070,1568 L 1068,1570 L 1067,1570 L 1066,1571 L 1065,1571 L 1065,1572 L 1064,1573 L 1062,1573 L 1060,1575 L 1058,1575 L 1056,1577 L 1054,1577 L 1053,1578 L 1052,1578 L 1051,1579 L 1048,1579 L 1047,1580 L 1046,1580 L 1045,1581 L 1037,1581 L 1035,1583 L 1034,1583 L 1032,1585 L 1031,1585 L 1030,1586 L 1028,1586 L 1026,1588 L 1022,1588 L 1021,1589 L 1020,1589 L 1019,1590 L 1008,1590 L 1007,1591 L 990,1591 L 989,1590 L 934,1590 L 933,1589 L 885,1589 L 884,1588 L 875,1588 L 874,1587 L 871,1587 L 870,1588 L 866,1588 L 865,1589 L 863,1589 L 862,1590 L 858,1590 L 857,1591 L 856,1591 L 855,1592 L 851,1592 L 850,1593 L 849,1593 L 848,1594 L 845,1594 L 844,1595 L 843,1595 L 842,1596 L 839,1596 L 837,1598 L 835,1598 L 832,1601 L 830,1601 L 829,1602 L 828,1602 L 827,1603 L 826,1603 L 825,1604 L 824,1604 L 823,1605 L 822,1605 L 821,1606 L 820,1606 L 819,1607 L 818,1607 L 816,1609 L 814,1609 L 812,1611 L 810,1611 L 808,1613 L 807,1613 L 806,1614 L 805,1614 L 803,1616 L 802,1616 L 801,1617 L 800,1617 L 799,1618 L 798,1618 L 797,1619 L 796,1619 L 795,1620 L 794,1620 L 792,1622 L 790,1622 L 788,1624 L 787,1624 L 786,1625 L 785,1625 L 784,1626 L 783,1626 L 782,1627 L 781,1627 L 779,1629 L 777,1629 L 775,1631 L 774,1631 L 773,1632 L 772,1632 L 771,1633 L 770,1633 L 769,1634 L 768,1634 L 767,1635 L 765,1635 L 763,1637 L 761,1637 L 760,1638 L 759,1638 L 758,1639 L 757,1639 L 756,1640 L 755,1640 L 754,1641 L 752,1641 L 750,1643 L 749,1643 L 748,1644 L 747,1644 L 746,1645 L 745,1645 L 744,1646 L 742,1646 L 740,1648 L 738,1648 L 736,1650 L 734,1650 L 732,1652 L 730,1652 L 728,1654 L 727,1654 L 726,1655 L 725,1655 L 724,1656 L 723,1656 L 722,1657 L 721,1657 L 721,1658 L 720,1659 L 718,1659 L 717,1660 L 716,1660 L 715,1661 L 714,1661 L 713,1662 L 712,1662 L 711,1663 L 710,1663 L 709,1664 L 708,1664 L 707,1665 L 706,1665 L 704,1667 L 702,1667 L 701,1668 L 700,1668 L 699,1669 L 698,1669 L 697,1670 L 696,1670 L 694,1672 L 692,1672 L 691,1673 L 690,1673 L 689,1674 L 687,1674 L 686,1675 L 685,1675 L 684,1676 L 682,1676 L 681,1677 L 680,1677 L 679,1678 L 676,1678 L 674,1680 L 671,1680 L 670,1681 L 669,1681 L 668,1682 L 666,1682 L 664,1684 L 662,1684 L 661,1685 L 660,1685 L 658,1687 L 656,1687 L 654,1689 L 652,1689 L 650,1691 L 649,1691 L 647,1693 L 645,1693 L 643,1695 L 641,1695 L 639,1697 L 638,1697 L 636,1699 L 635,1699 L 634,1700 L 633,1700 L 631,1702 L 629,1702 L 627,1704 L 626,1704 L 625,1705 L 624,1705 L 623,1706 L 622,1706 L 621,1707 L 620,1707 L 619,1708 L 618,1708 L 616,1710 L 614,1710 L 612,1712 L 611,1712 L 610,1713 L 609,1713 L 607,1715 L 606,1715 L 604,1717 L 602,1717 L 600,1719 L 598,1719 L 596,1721 L 595,1721 L 593,1723 L 591,1723 L 589,1725 L 588,1725 L 587,1726 L 586,1726 L 585,1727 L 584,1727 L 582,1729 L 581,1729 L 580,1730 L 579,1730 L 577,1732 L 575,1732 L 573,1734 L 573,1735 L 572,1736 L 572,1739 L 573,1740 L 573,1741 L 574,1742 L 582,1742 L 583,1743 L 602,1743 L 603,1744 L 613,1744 L 614,1745 L 617,1745 L 618,1746 L 617,1747 L 527,1747 L 527,1754 L 530,1757 L 531,1757 L 532,1758 L 534,1758 L 535,1759 L 539,1759 L 540,1760 L 542,1760 L 543,1761 L 550,1761 L 551,1762 L 1089,1762 L 1090,1761 L 1098,1761 L 1099,1760 L 1100,1760 L 1101,1759 L 1104,1759 L 1105,1758 L 1107,1758 L 1108,1757 L 1109,1757 L 1110,1756 L 1111,1756 L 1112,1755 L 1113,1755 L 1114,1754 L 1115,1754 L 1116,1753 L 1117,1753 L 1118,1752 L 1120,1752 L 1122,1750 L 1124,1750 L 1126,1748 L 1128,1748 L 1130,1746 L 1132,1746 L 1134,1744 L 1135,1744 L 1136,1743 L 1137,1743 L 1138,1742 L 1139,1742 L 1140,1741 L 1141,1741 L 1143,1739 L 1145,1739 L 1147,1737 L 1149,1737 L 1151,1735 L 1153,1735 L 1155,1733 L 1157,1733 L 1159,1731 L 1161,1731 L 1162,1730 L 1163,1730 L 1164,1729 L 1165,1729 L 1166,1728 L 1167,1728 L 1169,1726 L 1171,1726 L 1173,1724 L 1175,1724 L 1177,1722 L 1179,1722 L 1181,1720 L 1183,1720 L 1185,1718 L 1187,1718 L 1188,1717 L 1189,1717 L 1190,1716 L 1191,1716 L 1192,1715 L 1193,1715 L 1194,1714 L 1195,1714 L 1196,1713 L 1197,1713 L 1199,1711 L 1201,1711 L 1203,1709 L 1205,1709 L 1207,1707 L 1209,1707 L 1211,1705 L 1213,1705 L 1215,1703 L 1217,1703 L 1218,1702 L 1219,1702 L 1220,1701 L 1221,1701 L 1222,1700 L 1223,1700 L 1225,1698 L 1227,1698 L 1229,1696 L 1231,1696 L 1233,1694 L 1235,1694 L 1237,1692 L 1238,1692 L 1239,1691 L 1240,1691 L 1241,1690 L 1242,1690 L 1243,1689 L 1244,1689 L 1245,1688 L 1247,1688 L 1249,1686 L 1251,1686 L 1254,1683 L 1256,1683 L 1258,1681 L 1260,1681 L 1261,1680 L 1262,1680 L 1263,1679 L 1264,1679 L 1265,1678 L 1266,1678 L 1267,1677 L 1268,1677 L 1269,1676 L 1270,1676 L 1271,1675 L 1272,1675 L 1273,1674 L 1274,1674 L 1275,1673 L 1277,1673 L 1279,1671 L 1280,1671 L 1281,1670 L 1282,1670 L 1284,1668 L 1286,1668 L 1287,1667 L 1288,1667 L 1289,1666 L 1290,1666 L 1291,1665 L 1292,1665 L 1293,1664 L 1294,1664 L 1295,1663 L 1296,1663 L 1297,1662 L 1298,1662 L 1299,1661 L 1300,1661 L 1301,1660 L 1302,1660 L 1303,1659 L 1304,1659 L 1305,1658 L 1307,1658 L 1310,1655 L 1312,1655 L 1314,1653 L 1316,1653 L 1317,1652 L 1318,1652 L 1319,1651 L 1320,1651 L 1321,1650 L 1322,1650 L 1323,1649 L 1324,1649 L 1325,1648 L 1326,1648 L 1327,1647 L 1328,1647 L 1329,1646 L 1330,1646 L 1331,1645 L 1333,1645 L 1335,1643 L 1336,1643 L 1337,1642 L 1338,1642 L 1340,1640 L 1342,1640 L 1343,1639 L 1344,1639 L 1345,1638 L 1346,1638 L 1347,1637 L 1348,1637 L 1349,1636 L 1350,1636 L 1351,1635 L 1352,1635 L 1353,1634 L 1354,1634 L 1355,1633 L 1356,1633 L 1357,1632 L 1358,1632 L 1359,1631 L 1360,1631 L 1361,1630 L 1363,1630 L 1366,1627 L 1368,1627 L 1370,1625 L 1371,1625 L 1373,1623 L 1374,1623 L 1376,1621 L 1377,1621 L 1384,1614 L 1384,1613 L 1387,1610 L 1387,1609 L 1388,1608 L 1389,1608 L 1389,1607 L 1390,1606 L 1390,1605 L 1391,1604 L 1391,1603 L 1392,1602 L 1393,1602 L 1393,1600 L 1395,1598 L 1395,1597 L 1397,1595 L 1397,1594 L 1399,1592 L 1399,1591 L 1402,1588 L 1402,1587 L 1404,1585 L 1404,1584 L 1406,1582 L 1406,1581 L 1408,1579 L 1408,1578 L 1410,1576 L 1410,1575 L 1412,1573 L 1412,1572 L 1413,1571 L 1413,1570 L 1416,1567 L 1416,1566 L 1417,1565 L 1417,1564 L 1420,1561 L 1420,1560 L 1421,1559 L 1421,1558 L 1423,1556 L 1423,1555 L 1425,1553 L 1425,1552 L 1427,1550 L 1427,1549 L 1428,1548 L 1429,1548 L 1429,1547 L 1430,1546 L 1430,1545 L 1432,1543 L 1432,1542 L 1434,1540 L 1434,1539 L 1436,1537 L 1436,1536 L 1439,1533 L 1439,1532 L 1440,1531 L 1440,1530 L 1442,1528 L 1442,1527 L 1445,1524 L 1445,1523 L 1446,1522 L 1447,1522 L 1447,1521 L 1450,1518 L 1450,1517 L 1452,1515 L 1453,1515 L 1453,1514 L 1454,1513 L 1455,1513 L 1457,1511 L 1459,1511 L 1461,1509 L 1463,1509 L 1465,1507 L 1467,1507 L 1469,1505 L 1470,1505 L 1472,1503 L 1473,1503 L 1474,1502 L 1475,1502 L 1489,1488 L 1489,1487 L 1490,1486 L 1490,1485 L 1492,1483 L 1492,1482 L 1494,1480 L 1494,1479 L 1496,1477 L 1496,1476 L 1498,1474 L 1498,1473 L 1499,1472 L 1499,1471 L 1502,1468 L 1502,1467 L 1503,1466 L 1503,1465 L 1504,1464 L 1505,1464 L 1505,1463 L 1507,1461 L 1507,1459 L 1509,1457 L 1509,1455 L 1510,1454 L 1510,1452 L 1511,1451 L 1511,1444 L 1510,1443 L 1510,1442 L 1509,1441 L 1509,1439 L 1508,1438 L 1508,1436 L 1507,1435 L 1507,1433 L 1508,1432 L 1508,1431 L 1509,1430 L 1509,1428 L 1510,1427 L 1510,1426 L 1511,1425 L 1511,1424 L 1512,1423 L 1513,1423 L 1513,1422 L 1514,1421 L 1514,1420 L 1517,1417 L 1517,1416 L 1518,1415 L 1518,1414 L 1520,1412 L 1520,1411 L 1522,1409 L 1522,1408 L 1524,1406 L 1524,1405 L 1526,1403 L 1526,1402 L 1529,1399 L 1529,1398 L 1531,1396 L 1531,1395 L 1533,1393 L 1533,1392 L 1535,1390 L 1535,1389 L 1537,1387 L 1537,1386 L 1539,1384 L 1539,1383 L 1541,1381 L 1541,1380 L 1543,1378 L 1543,1377 L 1546,1374 L 1546,1372 L 1547,1371 L 1548,1371 L 1548,1370 L 1549,1369 L 1549,1368 L 1550,1367 L 1550,1366 L 1551,1365 L 1552,1365 L 1552,1364 L 1553,1363 L 1553,1362 L 1554,1361 L 1554,1360 L 1555,1359 L 1556,1359 L 1556,1357 L 1559,1354 L 1559,1353 L 1561,1351 L 1561,1350 L 1563,1348 L 1563,1347 L 1565,1345 L 1565,1344 L 1567,1342 L 1567,1341 L 1569,1339 L 1569,1338 L 1572,1335 L 1572,1334 L 1574,1332 L 1574,1331 L 1576,1329 L 1576,1328 L 1578,1326 L 1578,1325 L 1579,1324 L 1579,1323 L 1580,1322 L 1580,1320 L 1581,1319 L 1581,1318 L 1582,1317 L 1582,1310 L 1581,1309 L 1581,1308 L 1580,1307 L 1580,1305 L 1578,1303 L 1578,1302 L 1576,1300 L 1576,1299 L 1575,1298 L 1575,1297 L 1572,1294 L 1572,1293 L 1569,1290 L 1569,1289 L 1567,1287 L 1567,1286 L 1566,1285 L 1566,1284 L 1563,1281 L 1563,1280 L 1561,1278 L 1561,1277 L 1559,1275 L 1559,1274 L 1556,1271 L 1556,1270 L 1554,1268 L 1554,1267 L 1552,1265 L 1552,1264 L 1550,1262 L 1550,1261 L 1549,1261 L 1548,1260 L 1548,1259 L 1547,1258 L 1547,1257 L 1546,1256 L 1546,1255 L 1544,1253 L 1544,1252 L 1543,1252 L 1542,1251 L 1542,1250 L 1541,1249 L 1541,1248 L 1540,1248 L 1539,1247 L 1539,1246 L 1537,1244 L 1537,1243 L 1536,1242 L 1536,1241 L 1533,1238 L 1533,1237 L 1531,1235 L 1531,1234 L 1527,1230 L 1527,1229 L 1526,1228 L 1526,1227 L 1524,1225 L 1524,1224 L 1523,1224 L 1522,1223 L 1522,1222 L 1521,1221 L 1521,1220 L 1518,1217 L 1518,1216 L 1516,1214 L 1516,1213 L 1513,1210 L 1513,1209 L 1510,1206 L 1510,1205 L 1507,1202 L 1507,1201 L 1505,1199 L 1505,1198 Z" fill="black" />
<path d="M 1895,629 L 1895,633 L 1897,635 L 1897,636 L 1898,637 L 1898,638 L 1900,640 L 1900,642 L 1901,642 L 1902,643 L 1902,645 L 1904,647 L 1904,648 L 1906,650 L 1906,652 L 1908,654 L 1908,655 L 1910,657 L 1910,658 L 1912,660 L 1912,661 L 1913,662 L 1913,663 L 1915,665 L 1915,666 L 1917,668 L 1917,669 L 1919,671 L 1919,672 L 1921,674 L 1921,675 L 1922,676 L 1922,677 L 1923,678 L 1923,679 L 1925,681 L 1925,682 L 1928,685 L 1928,686 L 1930,688 L 1930,689 L 1931,690 L 1931,691 L 1932,692 L 1932,693 L 1934,695 L 1934,696 L 1936,698 L 1936,699 L 1938,701 L 1938,702 L 1939,703 L 1939,704 L 1940,705 L 1940,706 L 1943,709 L 1943,711 L 1944,712 L 1943,713 L 1943,715 L 1941,717 L 1941,718 L 1940,719 L 1940,720 L 1938,722 L 1938,724 L 1936,726 L 1936,728 L 1934,730 L 1933,729 L 1933,725 L 1932,724 L 1932,718 L 1931,717 L 1931,710 L 1929,708 L 1929,707 L 1927,705 L 1927,704 L 1926,703 L 1926,702 L 1924,700 L 1924,699 L 1923,698 L 1923,697 L 1922,696 L 1922,695 L 1920,693 L 1920,692 L 1918,690 L 1918,688 L 1916,686 L 1916,684 L 1914,682 L 1914,681 L 1911,678 L 1911,676 L 1909,674 L 1909,673 L 1908,672 L 1908,671 L 1907,670 L 1907,669 L 1905,667 L 1905,666 L 1903,664 L 1903,663 L 1902,662 L 1902,661 L 1901,660 L 1901,659 L 1899,657 L 1899,656 L 1898,655 L 1898,654 L 1896,652 L 1896,651 L 1894,649 L 1894,648 L 1892,646 L 1891,646 L 1890,645 L 1888,645 L 1887,644 L 1880,644 L 1879,645 L 1877,645 L 1874,648 L 1872,648 L 1870,650 L 1868,650 L 1866,652 L 1865,652 L 1864,653 L 1863,653 L 1862,654 L 1861,654 L 1860,655 L 1859,655 L 1858,656 L 1857,656 L 1856,657 L 1855,657 L 1854,658 L 1853,658 L 1851,660 L 1849,660 L 1847,662 L 1846,662 L 1845,663 L 1844,663 L 1843,664 L 1842,664 L 1841,665 L 1839,665 L 1837,667 L 1835,667 L 1833,669 L 1831,669 L 1831,670 L 1830,671 L 1828,671 L 1827,672 L 1826,672 L 1825,673 L 1824,673 L 1823,674 L 1822,674 L 1820,676 L 1818,676 L 1816,678 L 1814,678 L 1812,680 L 1810,680 L 1808,682 L 1806,682 L 1804,684 L 1802,684 L 1800,686 L 1799,686 L 1798,687 L 1797,687 L 1796,688 L 1794,688 L 1791,691 L 1789,691 L 1787,693 L 1785,693 L 1784,694 L 1783,694 L 1782,695 L 1781,695 L 1780,696 L 1779,696 L 1778,697 L 1777,697 L 1776,698 L 1775,698 L 1774,699 L 1773,699 L 1772,700 L 1771,700 L 1770,701 L 1769,701 L 1768,702 L 1767,702 L 1766,703 L 1765,703 L 1764,704 L 1763,704 L 1761,706 L 1760,706 L 1759,707 L 1758,707 L 1757,708 L 1755,708 L 1753,710 L 1751,710 L 1749,712 L 1747,712 L 1745,714 L 1743,714 L 1741,716 L 1739,716 L 1737,718 L 1736,718 L 1735,719 L 1734,719 L 1733,720 L 1732,720 L 1731,721 L 1730,721 L 1729,722 L 1728,722 L 1727,723 L 1725,723 L 1723,725 L 1721,725 L 1719,727 L 1717,727 L 1715,729 L 1713,729 L 1711,731 L 1709,731 L 1707,733 L 1706,733 L 1705,734 L 1704,734 L 1703,735 L 1702,735 L 1701,736 L 1700,736 L 1699,737 L 1698,737 L 1697,738 L 1695,738 L 1693,740 L 1691,740 L 1689,742 L 1687,742 L 1685,744 L 1683,744 L 1681,746 L 1680,746 L 1679,747 L 1678,747 L 1677,748 L 1676,748 L 1675,749 L 1674,749 L 1673,750 L 1672,750 L 1671,751 L 1669,751 L 1667,753 L 1665,753 L 1663,755 L 1661,755 L 1660,756 L 1659,756 L 1658,757 L 1657,757 L 1656,758 L 1655,758 L 1654,759 L 1653,759 L 1652,760 L 1651,760 L 1649,762 L 1647,762 L 1646,763 L 1645,763 L 1644,764 L 1642,764 L 1641,765 L 1640,765 L 1639,766 L 1637,766 L 1636,767 L 1635,767 L 1634,768 L 1633,768 L 1632,769 L 1631,769 L 1630,770 L 1629,770 L 1628,771 L 1627,771 L 1626,772 L 1625,772 L 1624,773 L 1623,773 L 1622,774 L 1621,774 L 1620,775 L 1619,775 L 1617,777 L 1614,777 L 1613,778 L 1611,778 L 1610,779 L 1605,779 L 1605,780 L 1606,780 L 1607,781 L 1607,782 L 1608,782 L 1609,783 L 1609,786 L 1606,789 L 1601,789 L 1600,788 L 1598,788 L 1597,787 L 1593,787 L 1591,789 L 1590,789 L 1589,790 L 1588,790 L 1586,792 L 1585,792 L 1579,798 L 1579,801 L 1578,802 L 1578,804 L 1577,805 L 1577,807 L 1576,808 L 1575,808 L 1572,805 L 1571,805 L 1568,802 L 1567,802 L 1565,800 L 1564,800 L 1563,799 L 1563,798 L 1562,798 L 1561,797 L 1560,797 L 1560,799 L 1561,800 L 1561,801 L 1562,802 L 1562,804 L 1563,805 L 1563,806 L 1564,807 L 1564,808 L 1565,809 L 1565,810 L 1568,813 L 1569,813 L 1570,814 L 1571,814 L 1573,816 L 1574,816 L 1578,820 L 1577,821 L 1577,823 L 1576,824 L 1576,825 L 1575,826 L 1575,828 L 1573,830 L 1573,832 L 1572,833 L 1572,834 L 1570,836 L 1570,837 L 1568,839 L 1568,840 L 1567,841 L 1567,842 L 1566,843 L 1566,844 L 1564,846 L 1564,847 L 1562,849 L 1562,850 L 1560,852 L 1560,853 L 1557,856 L 1557,857 L 1555,859 L 1555,860 L 1554,861 L 1553,861 L 1553,862 L 1552,863 L 1552,864 L 1551,865 L 1551,866 L 1550,867 L 1549,867 L 1549,868 L 1547,870 L 1547,871 L 1545,873 L 1545,875 L 1544,876 L 1543,876 L 1543,877 L 1542,878 L 1542,879 L 1540,881 L 1540,882 L 1538,884 L 1538,885 L 1536,887 L 1536,888 L 1534,890 L 1534,891 L 1532,893 L 1532,894 L 1530,896 L 1530,897 L 1527,900 L 1527,901 L 1525,903 L 1525,904 L 1523,906 L 1523,907 L 1522,908 L 1521,908 L 1521,909 L 1517,913 L 1517,914 L 1514,917 L 1514,918 L 1513,919 L 1513,920 L 1512,921 L 1512,924 L 1511,925 L 1511,933 L 1510,934 L 1510,935 L 1509,936 L 1508,936 L 1508,937 L 1506,939 L 1506,940 L 1499,947 L 1499,948 L 1498,949 L 1497,949 L 1497,950 L 1496,951 L 1495,951 L 1495,952 L 1498,955 L 1498,956 L 1499,957 L 1499,960 L 1495,964 L 1495,965 L 1494,966 L 1493,966 L 1493,967 L 1492,968 L 1491,968 L 1491,969 L 1490,970 L 1489,970 L 1481,978 L 1480,978 L 1477,981 L 1476,981 L 1474,983 L 1473,983 L 1470,986 L 1470,987 L 1469,988 L 1469,989 L 1467,991 L 1467,992 L 1465,994 L 1465,995 L 1457,1003 L 1456,1003 L 1454,1005 L 1452,1005 L 1450,1007 L 1448,1007 L 1447,1008 L 1446,1008 L 1445,1009 L 1444,1009 L 1442,1011 L 1441,1011 L 1441,1012 L 1440,1013 L 1439,1013 L 1438,1014 L 1437,1014 L 1434,1017 L 1433,1017 L 1432,1018 L 1431,1018 L 1431,1019 L 1430,1020 L 1428,1020 L 1426,1022 L 1424,1022 L 1423,1023 L 1422,1023 L 1421,1024 L 1419,1024 L 1417,1026 L 1414,1026 L 1412,1028 L 1409,1028 L 1407,1030 L 1406,1030 L 1405,1031 L 1404,1031 L 1402,1033 L 1400,1033 L 1399,1034 L 1398,1034 L 1397,1035 L 1396,1035 L 1395,1036 L 1394,1036 L 1393,1037 L 1392,1037 L 1391,1038 L 1390,1038 L 1389,1039 L 1388,1039 L 1386,1041 L 1384,1041 L 1382,1043 L 1380,1043 L 1377,1046 L 1375,1046 L 1373,1048 L 1371,1048 L 1369,1050 L 1367,1050 L 1365,1052 L 1364,1052 L 1363,1053 L 1362,1053 L 1361,1054 L 1359,1054 L 1358,1055 L 1357,1055 L 1356,1056 L 1353,1056 L 1352,1057 L 1350,1057 L 1349,1058 L 1340,1058 L 1339,1057 L 1331,1057 L 1330,1056 L 1328,1056 L 1327,1057 L 1314,1057 L 1313,1058 L 1260,1058 L 1259,1059 L 1250,1059 L 1249,1058 L 1236,1058 L 1235,1057 L 1220,1057 L 1219,1058 L 1202,1058 L 1201,1059 L 1187,1059 L 1186,1058 L 1179,1058 L 1178,1057 L 1161,1057 L 1160,1058 L 1154,1058 L 1153,1059 L 1151,1059 L 1150,1060 L 1148,1060 L 1147,1061 L 1143,1061 L 1142,1062 L 1141,1062 L 1140,1063 L 1137,1063 L 1135,1065 L 1132,1065 L 1131,1066 L 1130,1066 L 1129,1067 L 1127,1067 L 1125,1069 L 1123,1069 L 1122,1070 L 1121,1070 L 1120,1071 L 1119,1071 L 1118,1072 L 1117,1072 L 1116,1073 L 1115,1073 L 1113,1075 L 1112,1075 L 1111,1076 L 1110,1076 L 1109,1077 L 1108,1077 L 1107,1078 L 1106,1078 L 1104,1080 L 1102,1080 L 1100,1082 L 1099,1082 L 1098,1083 L 1097,1083 L 1096,1084 L 1095,1084 L 1093,1086 L 1092,1086 L 1090,1088 L 1089,1088 L 1088,1089 L 1087,1089 L 1085,1091 L 1085,1092 L 1082,1095 L 1082,1096 L 1077,1101 L 1073,1101 L 1072,1100 L 1071,1100 L 1070,1099 L 1069,1099 L 1068,1098 L 1066,1098 L 1065,1099 L 1063,1099 L 1061,1101 L 1060,1101 L 1059,1102 L 1058,1102 L 1057,1103 L 1056,1103 L 1055,1104 L 1054,1104 L 1052,1106 L 1050,1106 L 1048,1108 L 1046,1108 L 1044,1110 L 1042,1110 L 1040,1112 L 1038,1112 L 1036,1114 L 1035,1114 L 1034,1115 L 1033,1115 L 1031,1117 L 1029,1117 L 1027,1119 L 1025,1119 L 1023,1121 L 1022,1121 L 1021,1122 L 1020,1122 L 1019,1123 L 1018,1123 L 1017,1124 L 1016,1124 L 1015,1125 L 1013,1125 L 1011,1127 L 1010,1127 L 1009,1128 L 1008,1128 L 1007,1129 L 1006,1129 L 1004,1131 L 1003,1131 L 1002,1132 L 1000,1132 L 998,1134 L 996,1134 L 994,1136 L 992,1136 L 990,1138 L 989,1138 L 988,1139 L 987,1139 L 986,1140 L 985,1140 L 984,1141 L 983,1141 L 982,1142 L 981,1142 L 980,1143 L 979,1143 L 978,1144 L 977,1144 L 976,1145 L 975,1145 L 973,1147 L 972,1147 L 972,1150 L 971,1151 L 971,1152 L 970,1153 L 970,1156 L 968,1158 L 968,1159 L 967,1160 L 967,1161 L 966,1162 L 965,1162 L 964,1163 L 963,1163 L 961,1161 L 961,1160 L 959,1158 L 959,1157 L 958,1156 L 958,1149 L 957,1149 L 957,1150 L 956,1151 L 955,1151 L 953,1153 L 952,1153 L 950,1155 L 949,1155 L 949,1156 L 948,1157 L 947,1157 L 946,1158 L 945,1158 L 943,1160 L 942,1160 L 940,1162 L 939,1162 L 937,1164 L 936,1164 L 935,1165 L 934,1165 L 933,1166 L 932,1166 L 930,1168 L 928,1168 L 926,1170 L 925,1170 L 924,1171 L 923,1171 L 922,1172 L 921,1172 L 920,1173 L 919,1173 L 917,1175 L 915,1175 L 913,1177 L 910,1177 L 908,1179 L 906,1179 L 904,1181 L 902,1181 L 901,1182 L 900,1182 L 899,1183 L 897,1183 L 895,1185 L 893,1185 L 892,1186 L 891,1186 L 889,1188 L 886,1188 L 884,1190 L 882,1190 L 880,1192 L 880,1193 L 881,1193 L 882,1194 L 882,1195 L 881,1196 L 878,1196 L 877,1197 L 876,1197 L 875,1198 L 871,1198 L 870,1199 L 868,1199 L 867,1200 L 861,1200 L 860,1201 L 858,1201 L 857,1202 L 856,1202 L 855,1203 L 853,1203 L 851,1205 L 850,1205 L 843,1212 L 842,1212 L 841,1211 L 838,1211 L 837,1212 L 836,1212 L 835,1213 L 834,1213 L 832,1215 L 831,1215 L 830,1216 L 830,1217 L 829,1218 L 828,1218 L 828,1219 L 827,1220 L 826,1220 L 823,1223 L 822,1223 L 819,1226 L 818,1226 L 816,1228 L 814,1228 L 811,1231 L 809,1231 L 807,1233 L 805,1233 L 803,1235 L 801,1235 L 799,1237 L 796,1237 L 794,1239 L 792,1239 L 791,1240 L 790,1240 L 789,1241 L 786,1241 L 785,1242 L 784,1242 L 783,1243 L 781,1243 L 780,1244 L 779,1244 L 778,1245 L 777,1245 L 776,1246 L 773,1246 L 772,1247 L 771,1247 L 770,1248 L 767,1248 L 765,1250 L 762,1250 L 761,1251 L 760,1251 L 759,1252 L 758,1252 L 758,1255 L 757,1256 L 757,1259 L 755,1261 L 755,1262 L 754,1263 L 753,1263 L 752,1264 L 751,1264 L 750,1265 L 746,1265 L 745,1264 L 745,1263 L 744,1262 L 744,1260 L 742,1260 L 741,1261 L 740,1261 L 739,1262 L 738,1262 L 737,1263 L 736,1263 L 734,1265 L 732,1265 L 730,1267 L 728,1267 L 727,1268 L 726,1268 L 725,1269 L 723,1269 L 723,1270 L 722,1271 L 722,1272 L 718,1276 L 716,1276 L 715,1277 L 714,1277 L 713,1278 L 710,1278 L 709,1279 L 708,1279 L 707,1280 L 705,1280 L 704,1281 L 703,1281 L 702,1282 L 701,1282 L 701,1283 L 699,1285 L 699,1286 L 697,1288 L 697,1289 L 693,1293 L 692,1293 L 690,1295 L 689,1295 L 688,1296 L 686,1296 L 685,1297 L 681,1297 L 680,1298 L 673,1298 L 672,1299 L 668,1299 L 667,1300 L 666,1300 L 665,1301 L 664,1301 L 663,1302 L 661,1302 L 659,1304 L 657,1304 L 655,1306 L 654,1306 L 652,1308 L 651,1308 L 649,1310 L 648,1310 L 646,1312 L 645,1312 L 643,1314 L 643,1315 L 641,1317 L 641,1318 L 639,1320 L 639,1321 L 637,1323 L 637,1324 L 635,1326 L 635,1327 L 632,1330 L 632,1331 L 630,1333 L 630,1334 L 628,1336 L 628,1337 L 626,1339 L 626,1340 L 624,1342 L 624,1344 L 623,1345 L 622,1345 L 622,1347 L 620,1349 L 620,1350 L 618,1352 L 618,1353 L 615,1356 L 615,1357 L 611,1361 L 611,1362 L 609,1364 L 609,1365 L 607,1367 L 607,1368 L 605,1370 L 605,1372 L 604,1373 L 603,1373 L 603,1374 L 602,1375 L 602,1376 L 601,1377 L 600,1377 L 600,1378 L 599,1379 L 599,1380 L 598,1381 L 598,1382 L 597,1383 L 596,1383 L 596,1384 L 594,1386 L 594,1387 L 593,1388 L 593,1389 L 592,1390 L 592,1391 L 591,1392 L 590,1392 L 590,1393 L 589,1394 L 589,1395 L 586,1398 L 586,1399 L 585,1400 L 585,1402 L 584,1403 L 584,1404 L 583,1405 L 583,1407 L 582,1408 L 582,1409 L 581,1410 L 581,1413 L 580,1414 L 580,1416 L 579,1417 L 579,1418 L 577,1420 L 577,1421 L 574,1424 L 574,1425 L 572,1427 L 572,1428 L 570,1430 L 570,1431 L 568,1433 L 568,1434 L 566,1436 L 566,1437 L 564,1439 L 564,1440 L 563,1441 L 562,1441 L 562,1442 L 560,1444 L 560,1445 L 559,1446 L 559,1447 L 558,1448 L 557,1448 L 557,1449 L 555,1451 L 555,1452 L 553,1454 L 553,1455 L 551,1457 L 551,1458 L 549,1460 L 549,1461 L 545,1465 L 545,1466 L 544,1467 L 544,1468 L 543,1469 L 542,1469 L 542,1470 L 540,1472 L 540,1473 L 539,1474 L 539,1475 L 536,1478 L 536,1479 L 534,1481 L 534,1482 L 531,1485 L 531,1486 L 529,1488 L 529,1489 L 527,1491 L 527,1492 L 526,1493 L 525,1493 L 525,1494 L 524,1495 L 524,1496 L 521,1499 L 521,1501 L 520,1502 L 519,1502 L 519,1503 L 516,1506 L 516,1507 L 514,1509 L 514,1510 L 512,1512 L 512,1513 L 510,1515 L 510,1516 L 508,1518 L 508,1519 L 506,1521 L 506,1522 L 505,1523 L 504,1523 L 504,1524 L 501,1527 L 501,1529 L 500,1530 L 499,1530 L 499,1531 L 497,1533 L 497,1534 L 495,1536 L 495,1537 L 493,1539 L 493,1540 L 491,1542 L 491,1543 L 488,1546 L 488,1547 L 486,1549 L 486,1550 L 484,1552 L 484,1553 L 482,1555 L 482,1556 L 480,1558 L 480,1559 L 478,1561 L 478,1562 L 471,1569 L 471,1570 L 466,1575 L 466,1576 L 465,1577 L 465,1578 L 464,1579 L 463,1579 L 463,1581 L 462,1582 L 462,1583 L 461,1584 L 461,1586 L 460,1587 L 460,1591 L 459,1592 L 458,1592 L 456,1594 L 454,1594 L 452,1596 L 450,1596 L 449,1597 L 448,1597 L 447,1598 L 446,1598 L 445,1599 L 443,1599 L 441,1601 L 442,1601 L 443,1602 L 449,1602 L 450,1603 L 451,1603 L 452,1604 L 453,1604 L 454,1605 L 455,1605 L 456,1606 L 457,1606 L 458,1607 L 458,1608 L 459,1608 L 460,1609 L 460,1612 L 459,1613 L 459,1616 L 458,1617 L 458,1624 L 457,1625 L 457,1626 L 459,1626 L 460,1625 L 465,1625 L 466,1624 L 469,1627 L 469,1628 L 470,1629 L 470,1630 L 471,1631 L 471,1632 L 472,1633 L 472,1634 L 471,1635 L 471,1636 L 469,1638 L 469,1639 L 466,1642 L 465,1642 L 464,1641 L 464,1640 L 461,1637 L 461,1636 L 459,1634 L 459,1633 L 455,1629 L 455,1628 L 454,1627 L 454,1626 L 450,1622 L 447,1622 L 446,1621 L 444,1621 L 443,1622 L 443,1623 L 444,1624 L 444,1625 L 445,1626 L 445,1627 L 447,1629 L 447,1630 L 448,1631 L 448,1632 L 449,1632 L 450,1633 L 450,1634 L 451,1635 L 451,1636 L 452,1637 L 452,1638 L 454,1640 L 454,1641 L 456,1643 L 456,1644 L 458,1646 L 458,1647 L 459,1648 L 459,1649 L 460,1650 L 460,1651 L 461,1651 L 462,1652 L 462,1653 L 463,1654 L 463,1655 L 465,1657 L 465,1658 L 467,1660 L 467,1662 L 468,1662 L 469,1663 L 469,1664 L 470,1665 L 470,1666 L 471,1667 L 471,1668 L 472,1668 L 473,1669 L 473,1671 L 475,1673 L 475,1674 L 478,1677 L 478,1679 L 479,1679 L 480,1680 L 480,1681 L 481,1682 L 481,1683 L 482,1684 L 482,1685 L 484,1687 L 484,1688 L 486,1690 L 486,1691 L 488,1693 L 488,1694 L 489,1695 L 489,1696 L 492,1699 L 492,1700 L 493,1701 L 493,1702 L 495,1704 L 495,1705 L 497,1707 L 497,1708 L 498,1708 L 499,1709 L 500,1709 L 502,1711 L 513,1711 L 514,1710 L 515,1710 L 516,1709 L 518,1709 L 519,1708 L 520,1708 L 521,1707 L 522,1707 L 523,1706 L 524,1706 L 525,1705 L 526,1705 L 527,1704 L 528,1704 L 529,1703 L 530,1703 L 531,1702 L 532,1702 L 533,1701 L 534,1701 L 535,1700 L 536,1700 L 538,1698 L 540,1698 L 542,1696 L 544,1696 L 546,1694 L 548,1694 L 549,1693 L 550,1693 L 551,1692 L 552,1692 L 553,1691 L 554,1691 L 555,1690 L 556,1690 L 557,1689 L 558,1689 L 559,1688 L 560,1688 L 561,1687 L 562,1687 L 563,1686 L 564,1686 L 565,1685 L 566,1685 L 568,1683 L 570,1683 L 572,1681 L 574,1681 L 576,1679 L 578,1679 L 579,1678 L 580,1678 L 581,1677 L 582,1677 L 583,1676 L 584,1676 L 585,1675 L 586,1675 L 587,1674 L 588,1674 L 589,1673 L 590,1673 L 591,1672 L 592,1672 L 593,1671 L 594,1671 L 595,1670 L 596,1670 L 598,1668 L 600,1668 L 602,1666 L 604,1666 L 605,1665 L 606,1665 L 607,1664 L 608,1664 L 609,1663 L 610,1663 L 611,1662 L 612,1662 L 613,1661 L 614,1661 L 615,1660 L 616,1660 L 617,1659 L 618,1659 L 619,1658 L 620,1658 L 621,1657 L 622,1657 L 624,1655 L 626,1655 L 628,1653 L 630,1653 L 632,1651 L 634,1651 L 635,1650 L 636,1650 L 637,1649 L 638,1649 L 639,1648 L 640,1648 L 641,1647 L 642,1647 L 643,1646 L 644,1646 L 645,1645 L 646,1645 L 647,1644 L 648,1644 L 649,1643 L 650,1643 L 652,1641 L 653,1641 L 654,1640 L 655,1640 L 656,1639 L 657,1639 L 658,1638 L 659,1638 L 660,1637 L 661,1637 L 662,1636 L 664,1636 L 666,1634 L 668,1634 L 670,1632 L 672,1632 L 674,1630 L 676,1630 L 678,1628 L 679,1628 L 680,1627 L 681,1627 L 682,1626 L 683,1626 L 684,1625 L 685,1625 L 686,1624 L 687,1624 L 688,1623 L 690,1623 L 692,1621 L 694,1621 L 696,1619 L 698,1619 L 700,1617 L 702,1617 L 704,1615 L 706,1615 L 708,1613 L 709,1613 L 710,1612 L 711,1612 L 712,1611 L 713,1611 L 714,1610 L 715,1610 L 716,1609 L 717,1609 L 718,1608 L 720,1608 L 722,1606 L 724,1606 L 726,1604 L 728,1604 L 730,1602 L 732,1602 L 734,1600 L 736,1600 L 738,1598 L 739,1598 L 740,1597 L 741,1597 L 742,1596 L 743,1596 L 744,1595 L 745,1595 L 746,1594 L 747,1594 L 748,1593 L 750,1593 L 752,1591 L 754,1591 L 756,1589 L 758,1589 L 760,1587 L 762,1587 L 764,1585 L 765,1585 L 766,1584 L 767,1584 L 768,1583 L 769,1583 L 770,1582 L 771,1582 L 772,1581 L 773,1581 L 774,1580 L 775,1580 L 776,1579 L 777,1579 L 778,1578 L 780,1578 L 782,1576 L 784,1576 L 786,1574 L 788,1574 L 790,1572 L 791,1572 L 792,1571 L 793,1571 L 795,1569 L 797,1569 L 799,1567 L 801,1567 L 803,1565 L 805,1565 L 807,1563 L 809,1563 L 811,1561 L 813,1561 L 815,1559 L 817,1559 L 819,1557 L 820,1557 L 823,1554 L 824,1554 L 825,1553 L 825,1551 L 826,1550 L 826,1545 L 825,1544 L 825,1542 L 824,1541 L 824,1540 L 823,1539 L 823,1538 L 822,1537 L 822,1536 L 821,1535 L 821,1534 L 820,1534 L 819,1533 L 819,1531 L 816,1528 L 816,1527 L 815,1526 L 815,1525 L 814,1524 L 814,1523 L 813,1523 L 812,1522 L 812,1521 L 810,1519 L 810,1518 L 808,1516 L 808,1514 L 807,1513 L 807,1512 L 806,1511 L 806,1505 L 807,1504 L 807,1503 L 808,1502 L 808,1500 L 810,1498 L 810,1497 L 812,1495 L 812,1494 L 814,1492 L 814,1491 L 816,1489 L 816,1488 L 817,1487 L 817,1486 L 818,1485 L 819,1485 L 819,1484 L 821,1482 L 821,1481 L 823,1479 L 823,1478 L 825,1476 L 825,1475 L 827,1473 L 827,1471 L 828,1470 L 829,1470 L 829,1469 L 830,1468 L 830,1467 L 833,1464 L 833,1463 L 834,1462 L 834,1461 L 835,1460 L 836,1460 L 836,1459 L 837,1458 L 837,1457 L 838,1456 L 838,1455 L 840,1453 L 840,1452 L 841,1451 L 842,1451 L 842,1450 L 843,1449 L 843,1448 L 844,1447 L 844,1446 L 845,1445 L 846,1445 L 846,1444 L 847,1443 L 847,1442 L 849,1440 L 849,1439 L 851,1437 L 851,1436 L 853,1434 L 853,1433 L 855,1431 L 855,1430 L 857,1428 L 857,1427 L 859,1425 L 859,1424 L 862,1421 L 862,1420 L 864,1418 L 864,1417 L 865,1416 L 865,1415 L 866,1414 L 866,1413 L 867,1412 L 868,1412 L 868,1411 L 870,1409 L 870,1408 L 872,1406 L 872,1405 L 874,1403 L 874,1402 L 875,1401 L 875,1400 L 876,1399 L 877,1399 L 877,1398 L 878,1397 L 878,1396 L 879,1395 L 879,1394 L 880,1393 L 881,1393 L 881,1392 L 882,1391 L 882,1390 L 883,1389 L 883,1388 L 885,1386 L 885,1385 L 887,1383 L 887,1382 L 890,1379 L 890,1378 L 892,1376 L 892,1375 L 894,1373 L 894,1372 L 896,1370 L 896,1369 L 898,1367 L 898,1366 L 900,1364 L 900,1363 L 903,1360 L 903,1359 L 905,1357 L 905,1356 L 907,1354 L 907,1353 L 909,1351 L 909,1350 L 911,1348 L 911,1347 L 913,1345 L 913,1344 L 915,1342 L 915,1341 L 918,1338 L 918,1337 L 920,1335 L 920,1334 L 922,1332 L 922,1331 L 924,1329 L 924,1328 L 926,1326 L 926,1325 L 927,1324 L 928,1324 L 928,1323 L 929,1322 L 930,1322 L 930,1321 L 931,1320 L 932,1320 L 934,1318 L 935,1318 L 938,1315 L 939,1315 L 941,1313 L 943,1313 L 945,1311 L 947,1311 L 949,1309 L 951,1309 L 953,1307 L 955,1307 L 957,1305 L 959,1305 L 961,1303 L 963,1303 L 964,1302 L 965,1302 L 967,1300 L 969,1300 L 971,1298 L 973,1298 L 975,1296 L 977,1296 L 979,1294 L 981,1294 L 983,1292 L 985,1292 L 987,1290 L 989,1290 L 990,1289 L 991,1289 L 992,1288 L 993,1288 L 994,1287 L 995,1287 L 997,1285 L 999,1285 L 1001,1283 L 1003,1283 L 1005,1281 L 1007,1281 L 1009,1279 L 1011,1279 L 1013,1277 L 1015,1277 L 1017,1275 L 1019,1275 L 1020,1274 L 1021,1274 L 1022,1273 L 1023,1273 L 1026,1270 L 1028,1270 L 1030,1268 L 1032,1268 L 1033,1267 L 1034,1267 L 1035,1266 L 1036,1266 L 1037,1265 L 1038,1265 L 1039,1264 L 1040,1264 L 1041,1263 L 1042,1263 L 1043,1262 L 1045,1262 L 1046,1261 L 1047,1261 L 1048,1260 L 1051,1260 L 1052,1259 L 1053,1259 L 1054,1258 L 1056,1258 L 1057,1257 L 1069,1257 L 1070,1256 L 1076,1256 L 1077,1257 L 1281,1257 L 1282,1256 L 1287,1256 L 1288,1255 L 1294,1255 L 1295,1254 L 1296,1254 L 1297,1253 L 1300,1253 L 1302,1251 L 1305,1251 L 1307,1249 L 1309,1249 L 1311,1247 L 1313,1247 L 1315,1245 L 1317,1245 L 1319,1243 L 1320,1243 L 1321,1242 L 1322,1242 L 1323,1241 L 1324,1241 L 1325,1240 L 1326,1240 L 1327,1239 L 1328,1239 L 1329,1238 L 1330,1238 L 1331,1237 L 1332,1237 L 1333,1236 L 1335,1236 L 1337,1234 L 1339,1234 L 1341,1232 L 1343,1232 L 1345,1230 L 1346,1230 L 1347,1229 L 1348,1229 L 1349,1228 L 1350,1228 L 1351,1227 L 1352,1227 L 1353,1226 L 1354,1226 L 1355,1225 L 1356,1225 L 1357,1224 L 1358,1224 L 1359,1223 L 1360,1223 L 1361,1222 L 1362,1222 L 1363,1221 L 1365,1221 L 1367,1219 L 1369,1219 L 1371,1217 L 1372,1217 L 1373,1216 L 1374,1216 L 1375,1215 L 1376,1215 L 1377,1214 L 1378,1214 L 1379,1213 L 1380,1213 L 1381,1212 L 1382,1212 L 1384,1210 L 1386,1210 L 1388,1208 L 1390,1208 L 1392,1206 L 1394,1206 L 1396,1204 L 1398,1204 L 1400,1202 L 1402,1202 L 1403,1201 L 1404,1201 L 1406,1199 L 1408,1199 L 1410,1197 L 1412,1197 L 1414,1195 L 1416,1195 L 1418,1193 L 1420,1193 L 1422,1191 L 1424,1191 L 1426,1189 L 1428,1189 L 1429,1188 L 1430,1188 L 1432,1186 L 1434,1186 L 1436,1184 L 1438,1184 L 1440,1182 L 1442,1182 L 1444,1180 L 1446,1180 L 1448,1178 L 1450,1178 L 1452,1176 L 1454,1176 L 1456,1174 L 1458,1174 L 1459,1173 L 1460,1173 L 1462,1171 L 1464,1171 L 1466,1169 L 1468,1169 L 1470,1167 L 1472,1167 L 1474,1165 L 1476,1165 L 1478,1163 L 1480,1163 L 1482,1161 L 1484,1161 L 1486,1159 L 1487,1159 L 1488,1158 L 1490,1158 L 1492,1156 L 1494,1156 L 1496,1154 L 1498,1154 L 1500,1152 L 1502,1152 L 1504,1150 L 1506,1150 L 1508,1148 L 1510,1148 L 1512,1146 L 1514,1146 L 1516,1144 L 1517,1144 L 1518,1143 L 1520,1143 L 1522,1141 L 1524,1141 L 1526,1139 L 1528,1139 L 1530,1137 L 1532,1137 L 1534,1135 L 1536,1135 L 1538,1133 L 1540,1133 L 1542,1131 L 1543,1131 L 1544,1130 L 1546,1130 L 1548,1128 L 1550,1128 L 1552,1126 L 1554,1126 L 1556,1124 L 1558,1124 L 1560,1122 L 1561,1122 L 1562,1121 L 1563,1121 L 1564,1120 L 1565,1120 L 1566,1119 L 1567,1119 L 1568,1118 L 1569,1118 L 1570,1117 L 1571,1117 L 1573,1115 L 1575,1115 L 1577,1113 L 1579,1113 L 1581,1111 L 1583,1111 L 1585,1109 L 1587,1109 L 1588,1108 L 1589,1108 L 1590,1107 L 1591,1107 L 1592,1106 L 1593,1106 L 1594,1105 L 1595,1105 L 1596,1104 L 1597,1104 L 1598,1103 L 1599,1103 L 1600,1102 L 1601,1102 L 1603,1100 L 1605,1100 L 1607,1098 L 1609,1098 L 1611,1096 L 1613,1096 L 1614,1095 L 1615,1095 L 1616,1094 L 1617,1094 L 1618,1093 L 1619,1093 L 1620,1092 L 1621,1092 L 1622,1091 L 1623,1091 L 1624,1090 L 1625,1090 L 1626,1089 L 1627,1089 L 1628,1088 L 1629,1088 L 1630,1087 L 1631,1087 L 1633,1085 L 1635,1085 L 1637,1083 L 1639,1083 L 1641,1081 L 1643,1081 L 1644,1080 L 1645,1080 L 1646,1079 L 1647,1079 L 1648,1078 L 1649,1078 L 1650,1077 L 1651,1077 L 1652,1076 L 1653,1076 L 1654,1075 L 1655,1075 L 1656,1074 L 1657,1074 L 1659,1072 L 1661,1072 L 1663,1070 L 1665,1070 L 1667,1068 L 1669,1068 L 1671,1066 L 1673,1066 L 1674,1065 L 1675,1065 L 1676,1064 L 1677,1064 L 1678,1063 L 1679,1063 L 1680,1062 L 1681,1062 L 1682,1061 L 1683,1061 L 1684,1060 L 1685,1060 L 1686,1059 L 1687,1059 L 1689,1057 L 1691,1057 L 1693,1055 L 1695,1055 L 1697,1053 L 1699,1053 L 1700,1052 L 1701,1052 L 1702,1051 L 1703,1051 L 1704,1050 L 1705,1050 L 1706,1049 L 1707,1049 L 1708,1048 L 1709,1048 L 1710,1047 L 1711,1047 L 1712,1046 L 1713,1046 L 1714,1045 L 1715,1045 L 1716,1044 L 1717,1044 L 1719,1042 L 1721,1042 L 1723,1040 L 1725,1040 L 1727,1038 L 1729,1038 L 1730,1037 L 1731,1037 L 1732,1036 L 1733,1036 L 1734,1035 L 1735,1035 L 1736,1034 L 1737,1034 L 1738,1033 L 1739,1033 L 1740,1032 L 1741,1032 L 1742,1031 L 1743,1031 L 1745,1029 L 1746,1029 L 1748,1027 L 1749,1027 L 1751,1025 L 1752,1025 L 1752,1024 L 1753,1023 L 1754,1023 L 1754,1022 L 1755,1021 L 1756,1021 L 1761,1016 L 1761,1015 L 1763,1013 L 1763,1012 L 1765,1010 L 1765,1009 L 1767,1007 L 1767,1006 L 1769,1004 L 1769,1002 L 1770,1001 L 1771,1001 L 1771,1000 L 1772,999 L 1772,998 L 1773,997 L 1774,997 L 1774,996 L 1775,995 L 1775,994 L 1776,993 L 1776,992 L 1778,990 L 1778,989 L 1780,987 L 1780,986 L 1782,984 L 1782,983 L 1785,980 L 1785,979 L 1787,977 L 1787,976 L 1789,974 L 1789,973 L 1791,971 L 1791,970 L 1793,968 L 1793,967 L 1795,965 L 1795,964 L 1797,962 L 1797,961 L 1798,960 L 1798,959 L 1799,958 L 1800,958 L 1800,957 L 1802,955 L 1802,954 L 1804,952 L 1804,951 L 1806,949 L 1806,948 L 1808,946 L 1808,944 L 1809,943 L 1810,943 L 1810,942 L 1811,941 L 1811,940 L 1814,937 L 1814,936 L 1815,935 L 1815,934 L 1817,932 L 1817,931 L 1819,929 L 1819,928 L 1821,926 L 1821,925 L 1823,923 L 1823,922 L 1825,920 L 1825,919 L 1835,909 L 1836,909 L 1836,908 L 1837,907 L 1839,907 L 1841,905 L 1843,905 L 1844,904 L 1845,904 L 1846,903 L 1847,903 L 1848,902 L 1849,902 L 1851,900 L 1853,900 L 1856,897 L 1857,897 L 1860,894 L 1861,894 L 1863,892 L 1863,891 L 1866,888 L 1866,887 L 1868,885 L 1868,884 L 1871,881 L 1871,880 L 1873,878 L 1873,877 L 1875,875 L 1875,874 L 1877,872 L 1877,871 L 1879,869 L 1879,868 L 1881,866 L 1881,865 L 1883,863 L 1883,862 L 1884,861 L 1884,860 L 1887,857 L 1887,856 L 1888,855 L 1888,854 L 1890,852 L 1890,849 L 1891,848 L 1891,841 L 1890,840 L 1890,837 L 1889,836 L 1889,835 L 1888,834 L 1888,826 L 1890,824 L 1890,823 L 1892,821 L 1892,820 L 1894,818 L 1894,817 L 1895,816 L 1895,815 L 1896,814 L 1896,813 L 1897,812 L 1898,812 L 1898,811 L 1899,810 L 1899,809 L 1902,806 L 1902,805 L 1903,804 L 1903,803 L 1905,801 L 1905,800 L 1907,798 L 1907,797 L 1909,795 L 1909,794 L 1911,792 L 1911,791 L 1914,788 L 1914,787 L 1916,785 L 1916,784 L 1918,782 L 1918,781 L 1920,779 L 1920,778 L 1922,776 L 1922,775 L 1924,773 L 1924,772 L 1926,770 L 1926,769 L 1929,766 L 1929,765 L 1931,763 L 1931,762 L 1933,760 L 1933,759 L 1934,758 L 1934,757 L 1935,756 L 1935,755 L 1936,754 L 1937,754 L 1937,753 L 1938,752 L 1938,751 L 1939,750 L 1939,749 L 1940,748 L 1941,748 L 1941,747 L 1942,746 L 1942,745 L 1944,743 L 1944,742 L 1945,741 L 1946,741 L 1946,740 L 1947,739 L 1947,738 L 1948,737 L 1948,736 L 1949,735 L 1950,735 L 1950,733 L 1952,731 L 1952,730 L 1954,728 L 1954,727 L 1955,726 L 1955,725 L 1956,724 L 1956,723 L 1957,722 L 1957,713 L 1956,712 L 1956,710 L 1954,708 L 1954,707 L 1952,705 L 1952,704 L 1950,702 L 1950,701 L 1949,700 L 1949,699 L 1948,698 L 1948,697 L 1947,697 L 1946,696 L 1946,695 L 1945,694 L 1945,693 L 1944,692 L 1944,691 L 1943,691 L 1942,690 L 1942,689 L 1941,688 L 1941,687 L 1939,685 L 1939,684 L 1937,682 L 1937,681 L 1935,679 L 1935,678 L 1933,676 L 1933,675 L 1932,674 L 1932,673 L 1931,672 L 1931,671 L 1929,669 L 1929,668 L 1926,665 L 1926,664 L 1924,662 L 1924,661 L 1922,659 L 1922,658 L 1920,656 L 1920,654 L 1919,654 L 1918,653 L 1918,652 L 1917,651 L 1917,650 L 1916,649 L 1916,648 L 1915,648 L 1914,647 L 1914,646 L 1913,645 L 1913,644 L 1911,642 L 1911,641 L 1909,639 L 1909,638 L 1907,636 L 1907,635 L 1906,635 L 1905,634 L 1905,633 L 1904,632 L 1903,632 L 1901,630 L 1897,630 L 1896,629 Z" fill="black" />
<path d="M 1333,587 L 1332,588 L 1319,588 L 1318,589 L 1298,589 L 1297,590 L 1293,590 L 1292,591 L 1289,591 L 1288,592 L 1283,592 L 1281,594 L 1279,594 L 1278,595 L 1278,597 L 1277,598 L 1276,598 L 1276,599 L 1275,600 L 1274,600 L 1272,602 L 1270,602 L 1269,603 L 1265,603 L 1264,604 L 1255,604 L 1254,605 L 1249,605 L 1248,606 L 1247,606 L 1246,607 L 1244,607 L 1242,609 L 1240,609 L 1238,611 L 1237,611 L 1236,612 L 1235,612 L 1234,613 L 1233,613 L 1231,615 L 1229,615 L 1227,617 L 1226,617 L 1223,620 L 1222,620 L 1221,621 L 1220,621 L 1219,622 L 1218,622 L 1216,624 L 1214,624 L 1212,626 L 1211,626 L 1210,627 L 1209,627 L 1208,628 L 1207,628 L 1206,629 L 1205,629 L 1204,630 L 1203,630 L 1202,631 L 1201,631 L 1200,632 L 1199,632 L 1198,633 L 1196,633 L 1194,635 L 1192,635 L 1190,637 L 1188,637 L 1187,638 L 1186,638 L 1185,639 L 1183,639 L 1181,641 L 1179,641 L 1178,642 L 1177,642 L 1176,643 L 1175,643 L 1174,644 L 1173,644 L 1172,645 L 1170,645 L 1169,646 L 1168,646 L 1166,648 L 1164,648 L 1162,650 L 1160,650 L 1159,651 L 1158,651 L 1157,652 L 1155,652 L 1153,654 L 1151,654 L 1149,656 L 1148,656 L 1146,658 L 1144,658 L 1142,660 L 1141,660 L 1139,662 L 1138,662 L 1137,663 L 1136,663 L 1134,665 L 1133,665 L 1131,667 L 1129,667 L 1127,669 L 1125,669 L 1125,670 L 1124,671 L 1122,671 L 1120,673 L 1118,673 L 1116,675 L 1115,675 L 1114,676 L 1112,676 L 1111,677 L 1110,677 L 1109,678 L 1106,678 L 1105,679 L 1104,679 L 1103,680 L 1100,680 L 1097,683 L 1097,684 L 1095,686 L 1095,687 L 1093,689 L 1093,690 L 1092,691 L 1091,691 L 1091,692 L 1088,695 L 1087,695 L 1085,697 L 1084,697 L 1083,696 L 1083,693 L 1084,692 L 1084,691 L 1085,690 L 1085,689 L 1089,685 L 1090,685 L 1090,684 L 1082,684 L 1082,685 L 1081,686 L 1080,686 L 1078,688 L 1076,688 L 1076,689 L 1074,691 L 1074,692 L 1073,693 L 1073,694 L 1071,696 L 1070,696 L 1069,697 L 1067,697 L 1066,698 L 1065,698 L 1064,699 L 1062,699 L 1060,701 L 1058,701 L 1057,702 L 1056,702 L 1055,703 L 1054,703 L 1051,706 L 1049,706 L 1047,708 L 1046,708 L 1044,710 L 1042,710 L 1040,712 L 1039,712 L 1038,713 L 1037,713 L 1036,714 L 1035,714 L 1034,715 L 1033,715 L 1032,716 L 1030,716 L 1029,717 L 1028,717 L 1027,718 L 1026,718 L 1025,719 L 1023,719 L 1021,721 L 1020,721 L 1019,722 L 1018,722 L 1017,723 L 1016,723 L 1012,727 L 1011,727 L 1011,728 L 1010,729 L 1009,729 L 998,740 L 998,741 L 996,743 L 996,744 L 994,746 L 994,748 L 993,749 L 992,749 L 992,750 L 991,751 L 991,752 L 987,756 L 987,757 L 985,759 L 985,760 L 983,762 L 983,763 L 982,764 L 981,764 L 981,765 L 980,766 L 980,767 L 977,770 L 977,771 L 975,773 L 975,774 L 972,777 L 972,778 L 970,780 L 970,782 L 969,783 L 968,783 L 968,785 L 966,787 L 966,789 L 964,791 L 964,792 L 962,794 L 962,795 L 961,796 L 961,797 L 958,800 L 958,801 L 956,803 L 956,804 L 955,805 L 955,806 L 954,807 L 953,807 L 953,808 L 950,811 L 950,812 L 947,815 L 947,816 L 943,820 L 943,821 L 940,824 L 940,825 L 938,827 L 938,828 L 936,830 L 936,831 L 934,833 L 934,834 L 933,835 L 933,836 L 932,837 L 932,838 L 931,839 L 931,840 L 929,842 L 929,843 L 928,844 L 928,845 L 927,846 L 927,847 L 925,849 L 925,850 L 923,852 L 923,853 L 921,855 L 921,856 L 919,858 L 919,860 L 918,861 L 917,861 L 917,862 L 916,863 L 916,864 L 914,866 L 914,867 L 912,869 L 912,870 L 911,871 L 910,871 L 909,870 L 909,861 L 910,860 L 910,858 L 911,857 L 911,855 L 912,854 L 912,853 L 913,852 L 913,848 L 912,847 L 912,845 L 911,844 L 910,844 L 906,848 L 906,849 L 905,850 L 904,850 L 904,851 L 903,852 L 903,853 L 901,855 L 901,856 L 900,857 L 900,858 L 899,859 L 899,860 L 898,861 L 898,862 L 897,863 L 897,864 L 895,866 L 895,867 L 893,869 L 893,870 L 892,871 L 891,871 L 891,872 L 886,877 L 886,878 L 884,880 L 884,883 L 882,885 L 882,887 L 881,888 L 881,889 L 880,890 L 880,892 L 879,893 L 878,893 L 877,894 L 876,894 L 875,895 L 872,895 L 871,896 L 869,896 L 868,897 L 867,897 L 867,900 L 870,900 L 871,901 L 872,901 L 873,902 L 875,902 L 876,903 L 877,903 L 878,904 L 878,906 L 877,907 L 877,909 L 876,910 L 876,917 L 875,918 L 875,919 L 876,920 L 879,920 L 884,925 L 884,926 L 883,927 L 882,927 L 881,928 L 878,928 L 877,929 L 875,929 L 873,931 L 872,931 L 869,934 L 869,935 L 868,936 L 867,936 L 867,938 L 865,940 L 865,943 L 863,945 L 863,947 L 861,949 L 861,951 L 858,954 L 858,955 L 856,957 L 856,958 L 854,960 L 854,961 L 852,963 L 852,964 L 850,966 L 850,967 L 849,968 L 848,968 L 846,970 L 844,970 L 843,971 L 841,971 L 840,972 L 838,972 L 837,973 L 837,974 L 836,975 L 835,975 L 835,977 L 834,978 L 834,979 L 833,980 L 833,987 L 832,988 L 832,991 L 831,992 L 831,994 L 830,995 L 830,998 L 829,999 L 829,1000 L 828,1001 L 828,1002 L 827,1003 L 827,1004 L 824,1007 L 824,1008 L 823,1009 L 822,1009 L 820,1011 L 819,1011 L 817,1013 L 816,1013 L 815,1014 L 815,1015 L 811,1019 L 811,1020 L 810,1021 L 810,1022 L 813,1025 L 813,1027 L 809,1031 L 808,1030 L 807,1030 L 806,1029 L 806,1028 L 805,1028 L 803,1026 L 802,1026 L 801,1025 L 801,1024 L 800,1024 L 799,1023 L 797,1025 L 796,1025 L 797,1026 L 797,1027 L 798,1028 L 798,1029 L 799,1030 L 799,1031 L 800,1032 L 800,1033 L 802,1035 L 802,1036 L 803,1037 L 803,1038 L 805,1040 L 805,1041 L 807,1043 L 807,1044 L 809,1046 L 809,1047 L 811,1049 L 811,1051 L 812,1051 L 813,1052 L 813,1053 L 814,1054 L 814,1055 L 815,1056 L 815,1057 L 816,1057 L 817,1058 L 817,1059 L 818,1060 L 818,1061 L 820,1063 L 820,1064 L 822,1066 L 822,1067 L 824,1069 L 824,1070 L 826,1072 L 826,1074 L 828,1076 L 828,1077 L 830,1079 L 830,1080 L 833,1083 L 833,1084 L 835,1086 L 835,1087 L 837,1089 L 837,1090 L 838,1091 L 838,1092 L 839,1093 L 839,1094 L 840,1094 L 841,1095 L 841,1097 L 843,1099 L 843,1100 L 845,1102 L 845,1103 L 848,1106 L 848,1107 L 850,1109 L 850,1111 L 851,1111 L 852,1112 L 852,1113 L 853,1114 L 853,1115 L 854,1116 L 854,1117 L 856,1119 L 856,1120 L 858,1122 L 858,1123 L 861,1126 L 861,1127 L 863,1129 L 863,1130 L 865,1132 L 865,1133 L 866,1134 L 866,1135 L 867,1136 L 867,1137 L 871,1141 L 872,1141 L 873,1142 L 873,1143 L 876,1143 L 877,1144 L 887,1144 L 888,1143 L 890,1143 L 891,1142 L 892,1142 L 893,1141 L 894,1141 L 895,1140 L 896,1140 L 897,1139 L 898,1139 L 899,1138 L 900,1138 L 901,1137 L 902,1137 L 903,1136 L 904,1136 L 905,1135 L 907,1135 L 909,1133 L 911,1133 L 913,1131 L 915,1131 L 917,1129 L 918,1129 L 919,1128 L 920,1128 L 921,1127 L 922,1127 L 923,1126 L 924,1126 L 925,1125 L 926,1125 L 927,1124 L 928,1124 L 929,1123 L 930,1123 L 931,1122 L 932,1122 L 933,1121 L 934,1121 L 935,1120 L 937,1120 L 939,1118 L 941,1118 L 944,1115 L 946,1115 L 947,1114 L 948,1114 L 949,1113 L 950,1113 L 951,1112 L 952,1112 L 953,1111 L 954,1111 L 955,1110 L 956,1110 L 957,1109 L 958,1109 L 959,1108 L 960,1108 L 961,1107 L 963,1107 L 965,1105 L 967,1105 L 969,1103 L 970,1103 L 971,1102 L 972,1102 L 974,1100 L 976,1100 L 977,1099 L 978,1099 L 979,1098 L 980,1098 L 981,1097 L 982,1097 L 983,1096 L 984,1096 L 985,1095 L 986,1095 L 987,1094 L 988,1094 L 989,1093 L 990,1093 L 991,1092 L 992,1092 L 993,1091 L 994,1091 L 995,1090 L 996,1090 L 997,1089 L 998,1089 L 999,1088 L 1000,1088 L 1001,1087 L 1002,1087 L 1003,1086 L 1004,1086 L 1005,1085 L 1006,1085 L 1007,1084 L 1008,1084 L 1009,1083 L 1010,1083 L 1011,1082 L 1012,1082 L 1013,1081 L 1014,1081 L 1015,1080 L 1016,1080 L 1017,1079 L 1018,1079 L 1019,1078 L 1020,1078 L 1021,1077 L 1022,1077 L 1023,1076 L 1024,1076 L 1025,1075 L 1026,1075 L 1027,1074 L 1028,1074 L 1030,1072 L 1032,1072 L 1033,1071 L 1034,1071 L 1035,1070 L 1036,1070 L 1037,1069 L 1038,1069 L 1039,1068 L 1040,1068 L 1041,1067 L 1042,1067 L 1043,1066 L 1044,1066 L 1045,1065 L 1046,1065 L 1047,1064 L 1048,1064 L 1050,1062 L 1052,1062 L 1054,1060 L 1056,1060 L 1058,1058 L 1059,1058 L 1060,1057 L 1062,1057 L 1064,1055 L 1066,1055 L 1068,1053 L 1070,1053 L 1072,1051 L 1074,1051 L 1076,1049 L 1078,1049 L 1080,1047 L 1082,1047 L 1084,1045 L 1085,1045 L 1086,1044 L 1088,1044 L 1090,1042 L 1092,1042 L 1094,1040 L 1096,1040 L 1098,1038 L 1100,1038 L 1102,1036 L 1104,1036 L 1106,1034 L 1108,1034 L 1110,1032 L 1112,1032 L 1114,1030 L 1115,1030 L 1116,1029 L 1118,1029 L 1120,1027 L 1122,1027 L 1124,1025 L 1126,1025 L 1128,1023 L 1129,1023 L 1130,1022 L 1131,1022 L 1132,1021 L 1133,1021 L 1133,1020 L 1134,1019 L 1135,1019 L 1135,1018 L 1136,1017 L 1136,1016 L 1137,1015 L 1137,1009 L 1136,1008 L 1136,1007 L 1135,1006 L 1135,1002 L 1134,1001 L 1134,1000 L 1135,999 L 1135,995 L 1137,993 L 1137,991 L 1139,989 L 1139,987 L 1140,986 L 1141,986 L 1141,985 L 1142,984 L 1142,983 L 1143,982 L 1143,981 L 1144,980 L 1145,980 L 1145,979 L 1146,978 L 1146,977 L 1148,975 L 1148,974 L 1150,972 L 1150,971 L 1152,969 L 1152,968 L 1153,967 L 1154,967 L 1154,966 L 1155,965 L 1155,964 L 1156,963 L 1156,962 L 1159,959 L 1159,958 L 1161,956 L 1161,955 L 1163,953 L 1163,952 L 1165,950 L 1165,949 L 1167,947 L 1167,946 L 1169,944 L 1169,943 L 1171,941 L 1171,940 L 1174,937 L 1174,936 L 1176,934 L 1176,933 L 1178,931 L 1178,930 L 1180,928 L 1180,927 L 1182,925 L 1182,924 L 1184,922 L 1184,921 L 1186,919 L 1186,918 L 1187,917 L 1187,916 L 1188,915 L 1189,915 L 1189,914 L 1190,913 L 1190,912 L 1191,911 L 1191,910 L 1192,909 L 1193,909 L 1193,908 L 1194,907 L 1194,906 L 1195,905 L 1195,904 L 1197,902 L 1197,901 L 1199,899 L 1199,898 L 1202,895 L 1202,894 L 1204,892 L 1204,891 L 1206,889 L 1206,888 L 1208,886 L 1208,885 L 1210,883 L 1210,882 L 1212,880 L 1212,879 L 1214,877 L 1214,876 L 1217,873 L 1217,872 L 1219,870 L 1219,869 L 1221,867 L 1221,866 L 1223,864 L 1223,863 L 1225,861 L 1225,860 L 1226,859 L 1226,858 L 1227,857 L 1227,856 L 1228,855 L 1229,855 L 1229,854 L 1230,853 L 1230,852 L 1233,849 L 1233,848 L 1234,847 L 1234,846 L 1236,844 L 1236,843 L 1238,841 L 1238,840 L 1240,838 L 1240,837 L 1242,835 L 1242,834 L 1245,831 L 1245,830 L 1246,829 L 1247,829 L 1247,828 L 1248,827 L 1249,827 L 1249,826 L 1250,825 L 1251,825 L 1254,822 L 1255,822 L 1256,821 L 1257,821 L 1259,819 L 1261,819 L 1263,817 L 1264,817 L 1265,816 L 1266,816 L 1267,815 L 1268,815 L 1269,814 L 1270,814 L 1271,813 L 1272,813 L 1273,812 L 1275,812 L 1277,810 L 1279,810 L 1281,808 L 1283,808 L 1285,806 L 1287,806 L 1289,804 L 1290,804 L 1291,803 L 1292,803 L 1293,802 L 1294,802 L 1295,801 L 1296,801 L 1297,800 L 1298,800 L 1299,799 L 1300,799 L 1301,798 L 1302,798 L 1303,797 L 1305,797 L 1305,796 L 1306,795 L 1308,795 L 1310,793 L 1312,793 L 1314,791 L 1317,791 L 1319,789 L 1320,789 L 1321,788 L 1322,788 L 1323,787 L 1324,787 L 1325,786 L 1326,786 L 1327,785 L 1328,785 L 1329,784 L 1331,784 L 1333,782 L 1335,782 L 1337,780 L 1339,780 L 1341,778 L 1343,778 L 1344,777 L 1345,777 L 1346,776 L 1349,776 L 1350,775 L 1352,775 L 1353,774 L 1355,774 L 1356,773 L 1484,773 L 1485,774 L 1522,774 L 1523,773 L 1531,773 L 1532,772 L 1534,772 L 1535,771 L 1539,771 L 1540,770 L 1541,770 L 1542,769 L 1544,769 L 1545,768 L 1546,768 L 1547,767 L 1548,767 L 1549,766 L 1550,766 L 1551,765 L 1552,765 L 1553,764 L 1554,764 L 1555,763 L 1556,763 L 1557,762 L 1558,762 L 1559,761 L 1560,761 L 1561,760 L 1562,760 L 1564,758 L 1566,758 L 1568,756 L 1569,756 L 1570,755 L 1571,755 L 1572,754 L 1574,754 L 1576,752 L 1578,752 L 1580,750 L 1582,750 L 1584,748 L 1586,748 L 1588,746 L 1589,746 L 1590,745 L 1591,745 L 1592,744 L 1593,744 L 1594,743 L 1595,743 L 1596,742 L 1597,742 L 1598,741 L 1599,741 L 1600,740 L 1601,740 L 1602,739 L 1603,739 L 1605,737 L 1607,737 L 1609,735 L 1611,735 L 1613,733 L 1615,733 L 1616,732 L 1617,732 L 1619,730 L 1621,730 L 1623,728 L 1625,728 L 1627,726 L 1629,726 L 1631,724 L 1633,724 L 1635,722 L 1637,722 L 1639,720 L 1641,720 L 1643,718 L 1644,718 L 1645,717 L 1647,717 L 1649,715 L 1651,715 L 1653,713 L 1655,713 L 1657,711 L 1659,711 L 1661,709 L 1663,709 L 1665,707 L 1667,707 L 1669,705 L 1671,705 L 1672,704 L 1673,704 L 1675,702 L 1677,702 L 1679,700 L 1681,700 L 1683,698 L 1685,698 L 1687,696 L 1689,696 L 1691,694 L 1693,694 L 1695,692 L 1697,692 L 1699,690 L 1701,690 L 1702,689 L 1703,689 L 1705,687 L 1707,687 L 1709,685 L 1711,685 L 1713,683 L 1715,683 L 1717,681 L 1719,681 L 1721,679 L 1723,679 L 1725,677 L 1727,677 L 1728,676 L 1729,676 L 1731,674 L 1733,674 L 1735,672 L 1737,672 L 1739,670 L 1741,670 L 1743,668 L 1745,668 L 1747,666 L 1749,666 L 1751,664 L 1753,664 L 1755,662 L 1757,662 L 1758,661 L 1759,661 L 1761,659 L 1763,659 L 1765,657 L 1767,657 L 1768,656 L 1769,656 L 1770,655 L 1771,655 L 1772,654 L 1773,654 L 1774,653 L 1776,653 L 1778,651 L 1780,651 L 1782,649 L 1784,649 L 1786,647 L 1787,647 L 1788,646 L 1789,646 L 1790,645 L 1791,645 L 1792,644 L 1793,644 L 1794,643 L 1795,643 L 1796,642 L 1797,642 L 1798,641 L 1799,641 L 1800,640 L 1802,640 L 1804,638 L 1806,638 L 1808,636 L 1810,636 L 1812,634 L 1814,634 L 1816,632 L 1817,632 L 1818,631 L 1819,631 L 1820,630 L 1821,630 L 1822,629 L 1823,629 L 1824,628 L 1825,628 L 1826,627 L 1827,627 L 1828,626 L 1829,626 L 1830,625 L 1832,625 L 1834,623 L 1836,623 L 1838,621 L 1840,621 L 1842,619 L 1844,619 L 1846,617 L 1847,617 L 1848,616 L 1849,616 L 1850,615 L 1851,615 L 1852,614 L 1853,614 L 1854,613 L 1855,613 L 1856,612 L 1858,612 L 1860,610 L 1862,610 L 1864,608 L 1865,608 L 1867,606 L 1868,606 L 1869,605 L 1870,605 L 1872,603 L 1873,603 L 1874,602 L 1874,601 L 1870,601 L 1869,602 L 1863,602 L 1862,603 L 1861,603 L 1860,604 L 1857,604 L 1856,605 L 1852,605 L 1851,606 L 1850,606 L 1849,607 L 1844,607 L 1843,608 L 1842,608 L 1841,609 L 1837,609 L 1836,610 L 1834,610 L 1833,611 L 1829,611 L 1828,612 L 1827,612 L 1826,613 L 1822,613 L 1821,614 L 1820,614 L 1819,615 L 1815,615 L 1814,616 L 1812,616 L 1811,617 L 1808,617 L 1807,618 L 1805,618 L 1804,619 L 1803,619 L 1802,620 L 1799,620 L 1798,619 L 1799,618 L 1800,618 L 1800,617 L 1801,616 L 1802,616 L 1803,615 L 1804,615 L 1805,614 L 1806,614 L 1806,613 L 1807,612 L 1808,612 L 1809,611 L 1810,611 L 1811,610 L 1812,610 L 1812,609 L 1813,608 L 1815,608 L 1815,607 L 1816,606 L 1817,606 L 1820,603 L 1821,603 L 1824,600 L 1825,600 L 1828,597 L 1829,597 L 1833,593 L 1834,593 L 1834,592 L 1835,591 L 1836,591 L 1836,590 L 1838,588 L 1838,587 L 1694,587 L 1693,588 L 1640,588 L 1639,589 L 1545,589 L 1544,588 L 1538,588 L 1537,587 L 1533,587 L 1532,588 L 1530,588 L 1529,589 L 1525,589 L 1524,590 L 1521,590 L 1520,591 L 1515,591 L 1514,592 L 1505,592 L 1504,591 L 1499,591 L 1498,590 L 1478,590 L 1477,589 L 1461,589 L 1460,590 L 1448,590 L 1447,589 L 1439,589 L 1438,588 L 1436,588 L 1435,587 L 1416,587 L 1415,588 L 1406,588 L 1405,589 L 1390,589 L 1389,588 L 1362,588 L 1361,589 L 1355,589 L 1354,590 L 1352,590 L 1351,591 L 1350,591 L 1349,592 L 1348,592 L 1347,591 L 1347,589 L 1345,587 Z" fill="black" />
<path d="M 265,286 L 264,287 L 260,287 L 259,288 L 256,288 L 255,289 L 254,289 L 253,290 L 251,290 L 248,293 L 247,293 L 247,307 L 246,308 L 245,308 L 244,309 L 243,309 L 242,308 L 242,295 L 241,294 L 241,293 L 240,292 L 240,290 L 239,290 L 237,288 L 234,288 L 233,287 L 107,287 L 106,288 L 103,288 L 103,289 L 104,289 L 105,290 L 106,290 L 108,292 L 109,292 L 111,294 L 112,294 L 114,296 L 115,296 L 116,297 L 117,297 L 118,298 L 119,298 L 121,300 L 123,300 L 125,302 L 126,302 L 127,303 L 128,303 L 129,304 L 130,304 L 131,305 L 132,305 L 134,307 L 136,307 L 138,309 L 140,309 L 141,310 L 142,310 L 143,311 L 144,311 L 146,309 L 150,309 L 151,310 L 152,310 L 155,313 L 156,313 L 157,314 L 157,315 L 158,315 L 160,317 L 161,317 L 164,320 L 165,320 L 166,321 L 166,322 L 167,322 L 169,324 L 170,324 L 172,326 L 174,326 L 175,327 L 176,327 L 177,328 L 178,328 L 179,329 L 180,329 L 181,330 L 182,330 L 183,331 L 184,331 L 185,332 L 186,332 L 187,333 L 188,333 L 190,335 L 192,335 L 194,337 L 196,337 L 198,339 L 200,339 L 202,341 L 204,341 L 205,342 L 206,342 L 207,343 L 208,343 L 209,344 L 210,344 L 211,345 L 212,345 L 213,346 L 214,346 L 215,347 L 216,347 L 217,348 L 218,348 L 220,350 L 222,350 L 224,352 L 226,352 L 228,354 L 230,354 L 232,356 L 234,356 L 235,357 L 236,357 L 237,358 L 238,358 L 239,359 L 240,359 L 241,360 L 242,360 L 244,362 L 245,362 L 246,363 L 247,363 L 248,364 L 249,364 L 250,365 L 251,365 L 252,366 L 253,366 L 254,367 L 255,367 L 256,368 L 257,368 L 258,369 L 259,369 L 260,370 L 261,370 L 262,371 L 263,371 L 265,373 L 267,373 L 269,375 L 271,375 L 273,377 L 274,377 L 275,378 L 277,378 L 279,380 L 281,380 L 283,382 L 285,382 L 286,383 L 286,384 L 288,384 L 289,385 L 290,385 L 291,386 L 292,386 L 293,387 L 294,387 L 295,388 L 296,388 L 297,389 L 298,389 L 299,390 L 300,390 L 301,391 L 302,391 L 304,393 L 306,393 L 308,395 L 309,395 L 310,396 L 311,396 L 312,397 L 313,397 L 314,398 L 315,398 L 316,399 L 317,399 L 318,400 L 319,400 L 320,401 L 322,401 L 324,403 L 326,403 L 329,406 L 330,406 L 331,407 L 332,407 L 333,408 L 335,408 L 337,410 L 339,410 L 341,412 L 343,412 L 345,414 L 347,414 L 349,416 L 351,416 L 353,418 L 354,418 L 355,419 L 356,419 L 358,421 L 360,421 L 362,423 L 364,423 L 366,425 L 368,425 L 370,427 L 372,427 L 374,429 L 376,429 L 378,431 L 380,431 L 382,433 L 383,433 L 384,434 L 385,434 L 387,436 L 389,436 L 390,437 L 391,437 L 392,438 L 393,438 L 394,439 L 395,439 L 396,440 L 397,440 L 399,442 L 401,442 L 403,444 L 405,444 L 407,446 L 409,446 L 411,448 L 412,448 L 413,449 L 414,449 L 415,450 L 416,450 L 417,451 L 418,451 L 420,453 L 422,453 L 424,455 L 426,455 L 428,457 L 430,457 L 432,459 L 434,459 L 435,460 L 436,460 L 438,462 L 439,462 L 440,463 L 441,463 L 442,464 L 443,464 L 444,465 L 445,465 L 446,466 L 447,466 L 448,467 L 449,467 L 450,468 L 451,468 L 452,469 L 453,469 L 454,470 L 455,470 L 456,471 L 457,471 L 458,472 L 459,472 L 461,474 L 463,474 L 465,476 L 466,476 L 467,477 L 468,477 L 469,478 L 470,478 L 471,479 L 472,479 L 473,480 L 474,480 L 475,481 L 477,481 L 479,483 L 481,483 L 483,485 L 484,485 L 486,487 L 488,487 L 489,488 L 490,488 L 491,489 L 492,489 L 493,490 L 494,490 L 496,492 L 498,492 L 500,494 L 502,494 L 504,496 L 705,496 L 706,497 L 706,498 L 703,501 L 703,502 L 701,504 L 701,505 L 699,507 L 699,508 L 697,510 L 697,511 L 695,513 L 695,514 L 693,516 L 693,517 L 691,519 L 691,520 L 688,523 L 688,524 L 686,526 L 686,527 L 684,529 L 684,530 L 682,532 L 682,533 L 681,534 L 681,535 L 680,536 L 680,537 L 679,538 L 678,538 L 678,539 L 677,540 L 677,541 L 674,544 L 674,545 L 673,546 L 673,547 L 671,549 L 671,550 L 669,552 L 669,553 L 667,555 L 667,556 L 665,558 L 665,559 L 663,561 L 663,562 L 660,565 L 660,566 L 658,568 L 658,569 L 656,571 L 656,572 L 654,574 L 654,575 L 652,577 L 652,578 L 650,580 L 650,581 L 648,583 L 648,584 L 646,586 L 646,587 L 643,590 L 643,591 L 642,592 L 642,593 L 641,594 L 641,595 L 640,596 L 639,596 L 639,597 L 638,598 L 638,599 L 637,600 L 637,601 L 636,602 L 635,602 L 635,604 L 632,607 L 632,608 L 629,611 L 629,612 L 628,613 L 628,614 L 626,616 L 626,617 L 624,619 L 624,620 L 622,622 L 622,623 L 620,625 L 620,626 L 617,629 L 617,630 L 615,632 L 615,633 L 613,635 L 613,636 L 611,638 L 611,639 L 609,641 L 609,642 L 607,644 L 607,645 L 606,646 L 606,647 L 605,648 L 605,649 L 604,650 L 603,650 L 603,651 L 600,654 L 600,655 L 598,657 L 598,658 L 597,659 L 597,660 L 596,661 L 596,662 L 595,663 L 594,663 L 594,664 L 593,665 L 593,666 L 592,667 L 592,668 L 591,669 L 590,669 L 590,670 L 589,671 L 589,672 L 587,674 L 587,675 L 585,677 L 585,678 L 583,680 L 583,681 L 581,683 L 581,684 L 579,686 L 579,687 L 577,689 L 577,690 L 574,693 L 574,694 L 572,696 L 572,697 L 570,699 L 570,700 L 568,702 L 568,703 L 566,705 L 566,706 L 564,708 L 564,709 L 562,711 L 562,712 L 559,715 L 559,716 L 558,717 L 558,718 L 557,719 L 557,720 L 556,721 L 555,721 L 555,722 L 554,723 L 554,724 L 553,725 L 553,726 L 552,727 L 551,727 L 551,728 L 550,729 L 550,730 L 549,731 L 549,732 L 546,735 L 546,736 L 544,738 L 544,739 L 543,740 L 542,740 L 542,741 L 541,742 L 541,743 L 540,744 L 540,745 L 538,747 L 538,748 L 536,750 L 536,751 L 534,753 L 534,754 L 531,757 L 531,758 L 529,760 L 529,761 L 527,763 L 527,764 L 525,766 L 525,767 L 523,769 L 523,770 L 521,772 L 521,773 L 519,775 L 519,776 L 518,777 L 518,778 L 517,779 L 516,779 L 516,780 L 515,781 L 515,782 L 512,785 L 512,786 L 510,788 L 510,789 L 509,790 L 509,791 L 508,792 L 508,793 L 507,794 L 506,794 L 506,795 L 505,796 L 505,797 L 502,800 L 502,801 L 501,802 L 501,803 L 499,805 L 499,806 L 497,808 L 497,809 L 495,811 L 495,812 L 493,814 L 493,815 L 491,817 L 491,818 L 488,821 L 488,822 L 486,824 L 486,825 L 484,827 L 484,828 L 482,830 L 482,831 L 480,833 L 480,834 L 478,836 L 478,837 L 476,839 L 476,840 L 473,843 L 473,844 L 471,846 L 471,847 L 470,848 L 470,849 L 469,850 L 469,851 L 468,852 L 467,852 L 467,853 L 466,854 L 466,855 L 465,856 L 465,857 L 464,858 L 463,858 L 463,860 L 460,863 L 460,864 L 458,866 L 458,867 L 456,869 L 456,870 L 453,873 L 453,874 L 452,875 L 452,876 L 450,878 L 450,879 L 447,882 L 447,883 L 445,885 L 445,886 L 443,888 L 443,889 L 441,891 L 441,892 L 439,894 L 439,895 L 437,897 L 437,898 L 435,900 L 435,901 L 434,902 L 434,903 L 433,904 L 432,904 L 432,905 L 431,906 L 431,907 L 430,908 L 430,909 L 429,910 L 428,910 L 428,911 L 426,913 L 426,914 L 424,916 L 424,918 L 423,919 L 422,919 L 422,920 L 421,921 L 421,922 L 418,925 L 418,926 L 417,927 L 417,928 L 415,930 L 415,931 L 413,933 L 413,934 L 411,936 L 411,937 L 409,939 L 409,940 L 407,942 L 407,943 L 404,946 L 404,947 L 402,949 L 402,950 L 400,952 L 400,953 L 398,955 L 398,956 L 396,958 L 396,959 L 394,961 L 394,962 L 392,964 L 392,965 L 389,968 L 389,969 L 387,971 L 387,972 L 386,973 L 386,974 L 385,975 L 385,976 L 384,977 L 383,977 L 383,978 L 382,979 L 382,980 L 381,981 L 381,982 L 380,983 L 379,983 L 379,984 L 378,985 L 378,986 L 376,988 L 376,989 L 374,991 L 374,992 L 372,994 L 372,995 L 370,997 L 370,998 L 368,1000 L 368,1001 L 366,1003 L 366,1004 L 364,1006 L 364,1007 L 361,1010 L 361,1011 L 359,1013 L 359,1014 L 357,1016 L 357,1017 L 355,1019 L 355,1020 L 353,1022 L 353,1023 L 351,1025 L 351,1026 L 349,1028 L 349,1029 L 346,1032 L 346,1033 L 344,1035 L 344,1036 L 342,1038 L 342,1039 L 340,1041 L 340,1042 L 338,1044 L 338,1045 L 336,1047 L 336,1048 L 332,1052 L 332,1053 L 331,1054 L 331,1055 L 329,1057 L 329,1058 L 327,1060 L 327,1061 L 325,1063 L 325,1064 L 322,1067 L 322,1068 L 321,1069 L 321,1070 L 320,1071 L 319,1071 L 319,1072 L 318,1073 L 318,1074 L 316,1076 L 316,1077 L 313,1080 L 313,1081 L 312,1082 L 312,1083 L 311,1084 L 310,1084 L 310,1085 L 309,1086 L 309,1087 L 308,1088 L 308,1089 L 305,1092 L 305,1093 L 303,1095 L 303,1096 L 300,1099 L 300,1100 L 299,1101 L 299,1102 L 297,1104 L 297,1105 L 295,1107 L 295,1108 L 293,1110 L 293,1111 L 292,1112 L 291,1112 L 291,1113 L 290,1114 L 290,1115 L 288,1117 L 288,1118 L 286,1120 L 286,1121 L 284,1123 L 284,1124 L 282,1126 L 282,1127 L 280,1129 L 280,1130 L 278,1132 L 278,1133 L 275,1136 L 275,1137 L 273,1139 L 273,1140 L 271,1142 L 271,1143 L 269,1145 L 269,1146 L 267,1148 L 267,1149 L 265,1151 L 265,1152 L 263,1154 L 263,1155 L 260,1158 L 260,1159 L 259,1160 L 259,1161 L 258,1162 L 258,1163 L 257,1164 L 256,1164 L 256,1165 L 254,1167 L 254,1168 L 252,1170 L 252,1171 L 250,1173 L 250,1174 L 249,1175 L 249,1176 L 246,1179 L 246,1180 L 245,1181 L 245,1182 L 242,1185 L 242,1186 L 241,1187 L 241,1188 L 239,1190 L 239,1191 L 237,1193 L 237,1194 L 235,1196 L 235,1197 L 232,1200 L 232,1201 L 230,1203 L 230,1204 L 228,1206 L 228,1207 L 226,1209 L 226,1210 L 224,1212 L 224,1213 L 223,1214 L 223,1215 L 222,1216 L 222,1217 L 219,1220 L 219,1221 L 217,1223 L 217,1224 L 215,1226 L 215,1227 L 213,1229 L 213,1230 L 211,1232 L 211,1233 L 209,1235 L 209,1236 L 207,1238 L 207,1239 L 204,1242 L 204,1244 L 202,1246 L 202,1247 L 200,1249 L 200,1250 L 198,1252 L 198,1253 L 196,1255 L 196,1256 L 195,1257 L 195,1258 L 194,1259 L 194,1260 L 193,1261 L 192,1261 L 192,1262 L 191,1263 L 191,1264 L 188,1267 L 188,1268 L 187,1269 L 187,1270 L 185,1272 L 185,1273 L 183,1275 L 183,1276 L 181,1278 L 181,1279 L 180,1280 L 180,1281 L 179,1282 L 179,1283 L 178,1284 L 177,1284 L 177,1285 L 176,1286 L 176,1287 L 174,1289 L 174,1290 L 172,1292 L 172,1302 L 174,1304 L 174,1307 L 175,1308 L 175,1309 L 176,1310 L 176,1312 L 178,1314 L 178,1315 L 179,1316 L 179,1318 L 180,1319 L 180,1321 L 178,1323 L 170,1323 L 169,1322 L 168,1322 L 167,1321 L 165,1321 L 164,1320 L 163,1320 L 162,1319 L 161,1319 L 160,1318 L 160,1317 L 157,1317 L 157,1318 L 154,1321 L 154,1322 L 151,1325 L 151,1326 L 148,1329 L 148,1330 L 146,1332 L 146,1333 L 145,1334 L 144,1334 L 144,1335 L 142,1337 L 142,1338 L 140,1340 L 140,1341 L 138,1343 L 138,1344 L 135,1347 L 135,1348 L 134,1349 L 133,1349 L 133,1350 L 131,1352 L 131,1353 L 129,1355 L 129,1356 L 127,1358 L 127,1359 L 126,1360 L 125,1360 L 125,1361 L 124,1362 L 124,1363 L 120,1367 L 120,1368 L 118,1370 L 118,1371 L 116,1373 L 116,1374 L 113,1377 L 113,1378 L 112,1379 L 112,1380 L 111,1381 L 110,1381 L 110,1382 L 108,1384 L 108,1385 L 107,1386 L 107,1387 L 106,1388 L 105,1388 L 105,1389 L 103,1391 L 103,1392 L 101,1394 L 101,1395 L 99,1397 L 99,1398 L 98,1399 L 98,1400 L 97,1401 L 97,1402 L 96,1403 L 95,1403 L 95,1405 L 93,1407 L 93,1408 L 90,1411 L 90,1412 L 89,1413 L 89,1414 L 88,1415 L 88,1418 L 286,1418 L 287,1417 L 289,1417 L 291,1415 L 293,1415 L 295,1413 L 296,1413 L 297,1412 L 299,1412 L 301,1410 L 303,1410 L 305,1408 L 307,1408 L 308,1407 L 309,1407 L 310,1406 L 311,1406 L 312,1405 L 313,1405 L 314,1404 L 316,1404 L 318,1402 L 320,1402 L 321,1401 L 322,1401 L 324,1399 L 326,1399 L 328,1397 L 330,1397 L 331,1396 L 332,1396 L 333,1395 L 334,1395 L 335,1394 L 336,1394 L 337,1393 L 339,1393 L 341,1391 L 343,1391 L 344,1390 L 345,1390 L 346,1389 L 347,1389 L 348,1388 L 349,1388 L 350,1387 L 351,1387 L 352,1386 L 353,1386 L 355,1384 L 357,1384 L 359,1382 L 362,1382 L 364,1380 L 366,1380 L 368,1378 L 370,1378 L 372,1376 L 374,1376 L 376,1374 L 379,1374 L 381,1372 L 382,1372 L 383,1371 L 384,1371 L 385,1370 L 386,1370 L 387,1369 L 388,1369 L 389,1368 L 390,1368 L 391,1367 L 393,1367 L 394,1366 L 395,1366 L 396,1365 L 397,1365 L 398,1364 L 399,1364 L 400,1363 L 401,1363 L 402,1362 L 403,1362 L 404,1361 L 405,1361 L 406,1360 L 407,1360 L 408,1359 L 410,1359 L 411,1358 L 412,1358 L 414,1356 L 416,1356 L 418,1354 L 420,1354 L 422,1352 L 424,1352 L 425,1351 L 426,1351 L 427,1350 L 429,1350 L 431,1348 L 433,1348 L 435,1346 L 437,1346 L 439,1344 L 441,1344 L 442,1343 L 443,1343 L 445,1341 L 447,1341 L 448,1340 L 449,1340 L 450,1339 L 451,1339 L 452,1338 L 453,1338 L 454,1337 L 455,1337 L 456,1336 L 457,1336 L 458,1335 L 460,1335 L 462,1333 L 464,1333 L 465,1332 L 466,1332 L 467,1331 L 468,1331 L 469,1330 L 470,1330 L 472,1328 L 474,1328 L 475,1327 L 476,1327 L 477,1326 L 479,1326 L 481,1324 L 483,1324 L 485,1322 L 487,1322 L 488,1321 L 489,1321 L 490,1320 L 491,1320 L 492,1319 L 493,1319 L 494,1318 L 496,1318 L 498,1316 L 500,1316 L 503,1313 L 506,1313 L 508,1311 L 510,1311 L 512,1309 L 514,1309 L 516,1307 L 518,1307 L 519,1306 L 520,1306 L 521,1305 L 523,1305 L 525,1303 L 527,1303 L 529,1301 L 530,1301 L 531,1300 L 532,1300 L 533,1299 L 534,1299 L 535,1298 L 537,1298 L 538,1297 L 539,1297 L 540,1296 L 541,1296 L 542,1295 L 543,1295 L 544,1294 L 545,1294 L 546,1293 L 547,1293 L 548,1292 L 550,1292 L 552,1290 L 554,1290 L 555,1289 L 556,1289 L 557,1288 L 558,1288 L 559,1287 L 560,1287 L 562,1285 L 564,1285 L 566,1283 L 568,1283 L 569,1282 L 570,1282 L 571,1281 L 573,1281 L 575,1279 L 577,1279 L 579,1277 L 581,1277 L 583,1275 L 585,1275 L 586,1274 L 587,1274 L 588,1273 L 589,1273 L 590,1272 L 591,1272 L 592,1271 L 593,1271 L 594,1270 L 595,1270 L 596,1269 L 597,1269 L 598,1268 L 599,1268 L 600,1267 L 601,1267 L 602,1266 L 604,1266 L 605,1265 L 606,1265 L 607,1264 L 608,1264 L 609,1263 L 610,1263 L 611,1262 L 612,1262 L 613,1261 L 614,1261 L 615,1260 L 617,1260 L 619,1258 L 620,1258 L 621,1257 L 623,1257 L 625,1255 L 627,1255 L 629,1253 L 631,1253 L 632,1252 L 633,1252 L 634,1251 L 635,1251 L 636,1250 L 637,1250 L 638,1249 L 640,1249 L 642,1247 L 644,1247 L 646,1245 L 648,1245 L 649,1244 L 650,1244 L 652,1242 L 654,1242 L 656,1240 L 658,1240 L 660,1238 L 662,1238 L 663,1237 L 664,1237 L 665,1236 L 667,1236 L 669,1234 L 671,1234 L 673,1232 L 675,1232 L 676,1231 L 677,1231 L 678,1230 L 679,1230 L 680,1229 L 681,1229 L 682,1228 L 683,1228 L 684,1227 L 685,1227 L 686,1226 L 687,1226 L 688,1225 L 689,1225 L 690,1224 L 691,1224 L 692,1223 L 694,1223 L 696,1221 L 698,1221 L 699,1220 L 700,1220 L 701,1219 L 702,1219 L 703,1218 L 704,1218 L 705,1217 L 706,1217 L 707,1216 L 708,1216 L 710,1214 L 712,1214 L 713,1213 L 714,1213 L 715,1212 L 717,1212 L 719,1210 L 591,1210 L 590,1209 L 591,1208 L 591,1207 L 593,1205 L 593,1204 L 594,1203 L 594,1202 L 595,1201 L 595,1200 L 596,1199 L 597,1199 L 597,1197 L 599,1195 L 599,1194 L 601,1192 L 601,1191 L 603,1189 L 603,1187 L 606,1184 L 606,1183 L 608,1181 L 608,1180 L 610,1178 L 610,1177 L 611,1176 L 611,1175 L 612,1174 L 612,1173 L 614,1171 L 614,1170 L 616,1168 L 616,1167 L 618,1165 L 618,1164 L 619,1163 L 619,1162 L 621,1160 L 621,1159 L 623,1157 L 623,1156 L 625,1154 L 625,1153 L 626,1152 L 626,1151 L 627,1150 L 627,1149 L 628,1148 L 629,1148 L 629,1147 L 630,1146 L 630,1145 L 631,1144 L 631,1143 L 634,1140 L 634,1139 L 636,1137 L 636,1136 L 637,1135 L 637,1134 L 638,1133 L 638,1132 L 640,1130 L 640,1129 L 642,1127 L 642,1126 L 644,1124 L 644,1123 L 645,1122 L 645,1121 L 648,1118 L 648,1117 L 649,1116 L 649,1115 L 651,1113 L 651,1112 L 653,1110 L 653,1109 L 655,1107 L 655,1106 L 657,1104 L 657,1102 L 659,1100 L 659,1099 L 662,1096 L 662,1095 L 664,1093 L 664,1092 L 666,1090 L 666,1089 L 668,1087 L 668,1086 L 669,1085 L 669,1084 L 670,1083 L 670,1082 L 671,1081 L 672,1081 L 672,1079 L 674,1077 L 674,1076 L 677,1073 L 677,1072 L 679,1070 L 679,1069 L 680,1068 L 680,1067 L 681,1066 L 681,1065 L 682,1064 L 683,1064 L 683,1063 L 684,1062 L 684,1061 L 685,1060 L 685,1059 L 687,1057 L 687,1056 L 690,1053 L 690,1052 L 692,1050 L 692,1049 L 694,1047 L 694,1045 L 695,1044 L 696,1044 L 696,1043 L 697,1042 L 697,1041 L 698,1040 L 698,1039 L 700,1037 L 700,1036 L 702,1034 L 702,1033 L 705,1030 L 705,1029 L 707,1027 L 707,1026 L 709,1024 L 709,1022 L 710,1021 L 711,1021 L 711,1020 L 712,1019 L 712,1018 L 713,1017 L 713,1016 L 715,1014 L 715,1013 L 718,1010 L 718,1009 L 720,1007 L 720,1006 L 722,1004 L 722,1002 L 723,1001 L 724,1001 L 724,1000 L 725,999 L 725,998 L 726,997 L 726,996 L 727,995 L 728,995 L 728,994 L 729,993 L 729,992 L 730,991 L 730,990 L 733,987 L 733,986 L 735,984 L 735,983 L 737,981 L 737,980 L 739,978 L 739,977 L 741,975 L 741,974 L 742,973 L 742,972 L 743,971 L 743,970 L 744,969 L 745,969 L 745,968 L 746,967 L 746,966 L 749,963 L 749,962 L 750,961 L 750,960 L 752,958 L 752,957 L 754,955 L 754,954 L 756,952 L 756,951 L 758,949 L 758,948 L 760,946 L 760,945 L 762,943 L 762,942 L 763,941 L 763,940 L 764,939 L 765,939 L 765,938 L 766,937 L 766,936 L 767,935 L 767,934 L 768,933 L 769,933 L 769,931 L 771,929 L 771,928 L 773,926 L 773,925 L 776,922 L 776,921 L 778,919 L 778,918 L 780,916 L 780,915 L 782,913 L 782,912 L 784,910 L 784,909 L 786,907 L 786,906 L 788,904 L 788,902 L 791,899 L 791,898 L 793,896 L 793,895 L 795,893 L 795,892 L 797,890 L 797,888 L 799,886 L 799,885 L 801,883 L 801,882 L 803,880 L 803,879 L 806,876 L 806,875 L 807,874 L 807,873 L 808,872 L 808,871 L 810,869 L 810,868 L 812,866 L 812,865 L 814,863 L 814,862 L 815,861 L 815,860 L 816,859 L 816,858 L 819,855 L 819,854 L 821,852 L 821,851 L 823,849 L 823,848 L 825,846 L 825,845 L 826,844 L 826,843 L 827,842 L 827,841 L 829,839 L 829,838 L 831,836 L 831,835 L 833,833 L 833,832 L 834,831 L 834,830 L 835,829 L 836,829 L 836,827 L 838,825 L 838,824 L 840,822 L 840,821 L 842,819 L 842,817 L 843,816 L 844,816 L 844,815 L 845,814 L 845,813 L 847,811 L 847,810 L 849,808 L 849,807 L 851,805 L 851,804 L 852,803 L 852,802 L 853,801 L 853,800 L 854,799 L 855,799 L 855,798 L 856,797 L 856,796 L 857,795 L 857,794 L 859,792 L 859,791 L 862,788 L 862,787 L 863,786 L 863,785 L 864,784 L 864,783 L 865,782 L 866,782 L 866,780 L 868,778 L 868,777 L 870,775 L 870,774 L 871,773 L 871,772 L 872,771 L 872,770 L 873,769 L 874,769 L 874,768 L 875,767 L 875,766 L 877,764 L 877,763 L 879,761 L 879,760 L 881,758 L 881,757 L 882,756 L 882,755 L 883,754 L 883,753 L 884,752 L 885,752 L 885,750 L 887,748 L 887,747 L 890,744 L 890,742 L 891,741 L 892,741 L 892,740 L 893,739 L 893,738 L 894,737 L 894,736 L 896,734 L 896,733 L 898,731 L 898,730 L 900,728 L 900,727 L 901,726 L 901,725 L 904,722 L 904,721 L 905,720 L 905,719 L 907,717 L 907,716 L 909,714 L 909,712 L 910,711 L 911,711 L 911,710 L 912,709 L 912,708 L 913,707 L 913,706 L 915,704 L 915,703 L 918,700 L 918,699 L 919,698 L 919,697 L 920,696 L 920,695 L 923,692 L 923,691 L 924,690 L 924,689 L 926,687 L 926,686 L 928,684 L 928,682 L 929,681 L 930,681 L 930,680 L 931,679 L 931,678 L 933,676 L 933,675 L 935,673 L 935,672 L 937,670 L 937,669 L 938,668 L 938,667 L 939,666 L 939,665 L 940,664 L 941,664 L 941,663 L 942,662 L 942,661 L 943,660 L 943,659 L 945,657 L 945,656 L 948,653 L 948,652 L 949,651 L 949,650 L 950,649 L 950,648 L 952,646 L 952,645 L 954,643 L 954,642 L 956,640 L 956,639 L 957,638 L 957,637 L 958,636 L 958,635 L 961,632 L 961,631 L 963,629 L 963,628 L 965,626 L 965,625 L 967,623 L 967,622 L 968,621 L 968,620 L 969,619 L 969,618 L 971,616 L 971,615 L 973,613 L 973,612 L 976,609 L 976,607 L 978,605 L 978,604 L 980,602 L 980,601 L 981,600 L 981,599 L 980,598 L 978,598 L 976,596 L 975,596 L 973,594 L 972,594 L 971,593 L 971,592 L 970,592 L 965,587 L 964,587 L 963,586 L 963,585 L 962,585 L 961,584 L 961,583 L 960,583 L 958,581 L 957,581 L 956,580 L 956,579 L 955,579 L 954,578 L 954,577 L 953,577 L 948,572 L 947,572 L 945,570 L 944,570 L 942,568 L 941,568 L 940,567 L 940,566 L 939,565 L 939,564 L 937,562 L 937,561 L 938,560 L 941,560 L 942,561 L 943,561 L 944,562 L 945,562 L 946,563 L 950,563 L 951,564 L 952,564 L 953,565 L 956,565 L 957,566 L 959,566 L 960,567 L 963,567 L 964,568 L 965,568 L 966,569 L 969,569 L 970,570 L 971,570 L 972,571 L 976,571 L 977,572 L 980,572 L 981,573 L 984,573 L 986,575 L 987,575 L 988,576 L 989,576 L 991,578 L 992,578 L 993,579 L 994,579 L 995,578 L 995,577 L 997,575 L 997,574 L 999,572 L 999,571 L 1001,569 L 1001,568 L 1004,565 L 1004,564 L 1006,562 L 1006,561 L 1007,560 L 1007,559 L 1008,558 L 1008,557 L 1010,555 L 1010,554 L 1012,552 L 1012,551 L 1014,549 L 1014,548 L 1015,547 L 1015,546 L 1018,543 L 1018,542 L 1019,541 L 1019,540 L 1020,539 L 1021,539 L 1021,537 L 1023,535 L 1023,534 L 1025,532 L 1025,531 L 1026,530 L 1026,529 L 1027,528 L 1027,527 L 1028,526 L 1029,526 L 1029,525 L 1030,524 L 1030,523 L 1032,521 L 1032,520 L 1033,519 L 1033,518 L 1034,517 L 1034,516 L 1035,515 L 1036,515 L 1036,513 L 1038,511 L 1038,510 L 1040,508 L 1040,506 L 1042,504 L 1042,503 L 1043,502 L 1044,502 L 1044,501 L 1045,500 L 1046,500 L 1048,498 L 1049,498 L 1050,497 L 1051,497 L 1052,496 L 1055,496 L 1056,495 L 1391,495 L 1392,494 L 1395,494 L 1397,492 L 1398,492 L 1399,491 L 1399,490 L 1400,489 L 1401,489 L 1403,487 L 1403,486 L 1404,485 L 1404,484 L 1405,483 L 1406,483 L 1406,482 L 1407,481 L 1408,481 L 1408,480 L 1409,479 L 1410,479 L 1410,478 L 1411,477 L 1412,477 L 1415,474 L 1416,474 L 1418,472 L 1419,472 L 1421,470 L 1422,470 L 1424,468 L 1426,468 L 1428,466 L 1429,466 L 1430,465 L 1431,465 L 1432,464 L 1434,464 L 1436,462 L 1437,462 L 1438,461 L 1439,461 L 1440,460 L 1441,460 L 1442,459 L 1444,459 L 1446,457 L 1449,457 L 1451,455 L 1453,455 L 1454,454 L 1455,454 L 1456,453 L 1458,453 L 1459,452 L 1460,452 L 1461,451 L 1463,451 L 1464,450 L 1465,450 L 1466,449 L 1468,449 L 1469,448 L 1470,448 L 1471,447 L 1472,447 L 1473,446 L 1475,446 L 1476,445 L 1477,445 L 1478,444 L 1481,444 L 1483,442 L 1485,442 L 1486,441 L 1488,441 L 1489,440 L 1491,440 L 1492,439 L 1493,439 L 1494,438 L 1496,438 L 1497,437 L 1498,437 L 1499,436 L 1502,436 L 1504,434 L 1507,434 L 1508,433 L 1509,433 L 1510,432 L 1511,432 L 1512,431 L 1514,431 L 1515,430 L 1516,430 L 1517,429 L 1520,429 L 1522,427 L 1524,427 L 1525,426 L 1526,426 L 1527,425 L 1530,425 L 1532,423 L 1535,423 L 1536,422 L 1537,422 L 1538,421 L 1540,421 L 1542,419 L 1543,419 L 1544,418 L 1546,418 L 1547,417 L 1548,417 L 1549,416 L 1551,416 L 1553,414 L 1555,414 L 1557,412 L 1560,412 L 1562,410 L 1564,410 L 1566,408 L 1567,408 L 1568,407 L 1569,407 L 1570,406 L 1571,406 L 1573,404 L 1574,404 L 1575,403 L 1576,403 L 1578,401 L 1579,401 L 1581,399 L 1582,399 L 1582,398 L 1583,397 L 1584,397 L 1586,395 L 1587,395 L 1587,394 L 1588,393 L 1589,393 L 1589,392 L 1591,390 L 1591,389 L 1592,388 L 1592,387 L 1593,386 L 1593,383 L 1592,382 L 1590,382 L 1589,381 L 1585,381 L 1584,380 L 1583,380 L 1582,379 L 1579,379 L 1576,376 L 1576,372 L 1575,371 L 1575,370 L 1574,369 L 1574,365 L 1573,364 L 1575,362 L 1575,361 L 1578,358 L 1578,357 L 1579,356 L 1580,356 L 1580,355 L 1582,353 L 1582,352 L 1584,350 L 1584,349 L 1586,347 L 1587,347 L 1588,348 L 1588,349 L 1589,349 L 1590,350 L 1591,350 L 1593,352 L 1594,352 L 1596,354 L 1598,354 L 1599,355 L 1600,355 L 1601,356 L 1608,356 L 1609,357 L 1615,357 L 1616,358 L 1657,358 L 1658,357 L 1663,357 L 1664,356 L 1670,356 L 1671,355 L 1673,355 L 1674,354 L 1677,354 L 1678,353 L 1679,353 L 1682,350 L 1684,350 L 1685,349 L 1686,349 L 1688,347 L 1690,347 L 1692,345 L 1694,345 L 1695,344 L 1696,344 L 1697,343 L 1698,343 L 1699,342 L 1700,342 L 1701,341 L 1703,341 L 1704,340 L 1705,340 L 1706,339 L 1707,339 L 1708,338 L 1709,338 L 1710,337 L 1712,337 L 1714,335 L 1716,335 L 1717,334 L 1718,334 L 1720,332 L 1722,332 L 1723,331 L 1724,331 L 1725,330 L 1726,330 L 1727,329 L 1728,329 L 1729,328 L 1731,328 L 1732,327 L 1733,327 L 1734,326 L 1735,326 L 1736,325 L 1737,325 L 1738,324 L 1740,324 L 1742,322 L 1744,322 L 1745,321 L 1746,321 L 1747,320 L 1748,320 L 1749,319 L 1750,319 L 1751,318 L 1752,318 L 1753,317 L 1754,317 L 1755,316 L 1756,316 L 1757,315 L 1759,315 L 1760,314 L 1761,314 L 1762,313 L 1763,313 L 1764,312 L 1765,312 L 1766,311 L 1768,311 L 1770,309 L 1772,309 L 1773,308 L 1774,308 L 1775,307 L 1776,307 L 1777,306 L 1778,306 L 1779,305 L 1780,305 L 1781,304 L 1782,304 L 1783,303 L 1784,303 L 1785,302 L 1787,302 L 1788,301 L 1789,301 L 1790,300 L 1791,300 L 1792,299 L 1793,299 L 1794,298 L 1795,298 L 1796,297 L 1797,297 L 1798,296 L 1800,296 L 1801,295 L 1802,295 L 1803,294 L 1804,294 L 1805,293 L 1806,293 L 1807,292 L 1809,292 L 1811,290 L 1812,290 L 1813,289 L 1815,289 L 1816,288 L 1817,288 L 1817,287 L 1216,287 L 1215,288 L 1212,288 L 1210,290 L 1208,290 L 1206,292 L 1205,292 L 1204,293 L 1203,293 L 1202,294 L 1201,294 L 1200,295 L 1198,295 L 1196,297 L 1194,297 L 1192,299 L 1190,299 L 1188,301 L 1186,301 L 1185,302 L 1184,302 L 1183,303 L 1182,302 L 1182,301 L 1181,301 L 1180,300 L 1180,299 L 1179,299 L 1173,293 L 1172,293 L 1169,290 L 1168,290 L 1167,289 L 1167,288 L 1165,288 L 1164,287 L 325,287 L 325,298 L 324,299 L 324,300 L 323,301 L 323,302 L 322,303 L 322,304 L 321,305 L 321,306 L 319,308 L 318,308 L 317,309 L 316,308 L 313,308 L 312,307 L 311,307 L 310,306 L 308,306 L 307,305 L 305,305 L 304,304 L 303,304 L 302,303 L 301,303 L 296,298 L 296,297 L 295,296 L 295,293 L 294,292 L 294,290 L 292,288 L 290,288 L 289,287 L 282,287 L 281,286 Z" fill="black" />
</svg>